<svg width="513" height="513" viewBox="0 0 513 513" fill="none" xmlns="http://www.w3.org/2000/svg">
<circle cx="256.5" cy="256.5" r="256.5" fill="#120032"/>
<path d="M185.39 374.812C185.391 374.431 185.392 374.049 185.393 373.667C185.393 373.599 185.393 373.548 185.39 373.502C185.387 373.456 185.382 373.428 185.377 373.409C185.375 373.401 185.373 373.396 185.372 373.393L185.37 373.39L185.37 373.389L185.37 373.389L185.368 373.388C185.367 373.386 185.363 373.383 185.356 373.378L185.629 372.96M185.39 374.812L185.157 384.408C185.121 381.206 185.13 378.013 185.157 374.81M185.39 374.812L185.157 374.81M185.39 374.812L185.157 374.81M185.629 372.96L185.827 373.185C185.788 373.1 185.726 373.023 185.629 372.96ZM185.629 372.96C185.137 373.39 185.146 373.963 185.155 374.514C185.157 374.614 185.158 374.713 185.157 374.81M185.884 373.41C185.814 373.487 185.765 373.572 185.73 373.667L185.893 373.667M185.884 373.41L185.657 374.816C185.659 374.683 185.657 374.567 185.655 374.46C185.651 374.258 185.648 374.09 185.674 373.906C185.686 373.819 185.704 373.74 185.73 373.667H185.893M185.884 373.41C185.893 373.494 185.893 373.581 185.893 373.667M185.884 373.41L185.848 386.594M185.893 373.667C185.884 377.976 185.866 382.285 185.848 386.594M185.848 386.594H185.83C175.577 386.594 165.316 386.594 155.063 386.576C154.976 386.576 154.88 386.595 154.781 386.615C154.649 386.641 154.513 386.669 154.386 386.652C154.461 386.595 154.535 386.553 154.615 386.521L185.848 386.594ZM185.35 386.094C185.233 386.094 185.117 386.094 185.001 386.094C185.064 386.049 185.124 385.997 185.18 385.939C185.245 385.872 185.302 385.8 185.351 385.724C185.351 385.847 185.35 385.971 185.35 386.094Z" fill="#01A195" stroke="#120032"/>
<mask id="path-3-inside-1_779_6035" fill="white">
<path d="M154.309 386.304C154.209 386.313 154.109 386.322 154 386.331C154 379.736 154 373.15 154 366.555C154.191 366.482 154.336 366.527 154.445 366.709C154.754 367.289 154.7 367.915 154.7 368.532C154.709 373.812 154.709 379.101 154.7 384.38C154.691 385.052 154.791 385.741 154.309 386.304Z"/>
</mask>
<path d="M154.309 386.304C154.209 386.313 154.109 386.322 154 386.331C154 379.736 154 373.15 154 366.555C154.191 366.482 154.336 366.527 154.445 366.709C154.754 367.289 154.7 367.915 154.7 368.532C154.709 373.812 154.709 379.101 154.7 384.38C154.691 385.052 154.791 385.741 154.309 386.304Z" fill="#01A195"/>
<path d="M154.309 386.304L154.399 387.3L154.804 387.263L155.069 386.954L154.309 386.304ZM154 386.331H153V387.418L154.083 387.327L154 386.331ZM154 366.555L153.645 365.62L153 365.865V366.555H154ZM154.445 366.709L155.328 366.239L155.316 366.216L155.302 366.194L154.445 366.709ZM154.7 368.532H153.7L153.7 368.534L154.7 368.532ZM154.7 384.38L155.7 384.394L155.7 384.382L154.7 384.38ZM154.219 385.308C154.118 385.317 154.022 385.326 153.917 385.334L154.083 387.327C154.196 387.318 154.3 387.309 154.399 387.3L154.219 385.308ZM155 386.331C155 386.318 155 386.305 155 386.292C155 386.279 155 386.266 155 386.254C155 386.241 155 386.228 155 386.215C155 386.202 155 386.189 155 386.176C155 386.163 155 386.151 155 386.138C155 386.125 155 386.112 155 386.099C155 386.086 155 386.073 155 386.06C155 386.048 155 386.035 155 386.022C155 386.009 155 385.996 155 385.983C155 385.97 155 385.957 155 385.944C155 385.932 155 385.919 155 385.906C155 385.893 155 385.88 155 385.867C155 385.854 155 385.841 155 385.829C155 385.816 155 385.803 155 385.79C155 385.777 155 385.764 155 385.751C155 385.738 155 385.726 155 385.713C155 385.7 155 385.687 155 385.674C155 385.661 155 385.648 155 385.635C155 385.622 155 385.61 155 385.597C155 385.584 155 385.571 155 385.558C155 385.545 155 385.532 155 385.519C155 385.507 155 385.494 155 385.481C155 385.468 155 385.455 155 385.442C155 385.429 155 385.416 155 385.404C155 385.391 155 385.378 155 385.365C155 385.352 155 385.339 155 385.326C155 385.313 155 385.3 155 385.288C155 385.275 155 385.262 155 385.249C155 385.236 155 385.223 155 385.21C155 385.197 155 385.185 155 385.172C155 385.159 155 385.146 155 385.133C155 385.12 155 385.107 155 385.094C155 385.082 155 385.069 155 385.056C155 385.043 155 385.03 155 385.017C155 385.004 155 384.991 155 384.978C155 384.966 155 384.953 155 384.94C155 384.927 155 384.914 155 384.901C155 384.888 155 384.875 155 384.863C155 384.85 155 384.837 155 384.824C155 384.811 155 384.798 155 384.785C155 384.772 155 384.76 155 384.747C155 384.734 155 384.721 155 384.708C155 384.695 155 384.682 155 384.669C155 384.657 155 384.644 155 384.631C155 384.618 155 384.605 155 384.592C155 384.579 155 384.566 155 384.554C155 384.541 155 384.528 155 384.515C155 384.502 155 384.489 155 384.476C155 384.463 155 384.45 155 384.438C155 384.425 155 384.412 155 384.399C155 384.386 155 384.373 155 384.36C155 384.347 155 384.335 155 384.322C155 384.309 155 384.296 155 384.283C155 384.27 155 384.257 155 384.244C155 384.232 155 384.219 155 384.206C155 384.193 155 384.18 155 384.167C155 384.154 155 384.141 155 384.129C155 384.116 155 384.103 155 384.09C155 384.077 155 384.064 155 384.051C155 384.038 155 384.026 155 384.013C155 384 155 383.987 155 383.974C155 383.961 155 383.948 155 383.935C155 383.922 155 383.91 155 383.897C155 383.884 155 383.871 155 383.858C155 383.845 155 383.832 155 383.819C155 383.807 155 383.794 155 383.781C155 383.768 155 383.755 155 383.742C155 383.729 155 383.716 155 383.704C155 383.691 155 383.678 155 383.665C155 383.652 155 383.639 155 383.626C155 383.613 155 383.601 155 383.588C155 383.575 155 383.562 155 383.549C155 383.536 155 383.523 155 383.51C155 383.498 155 383.485 155 383.472C155 383.459 155 383.446 155 383.433C155 383.42 155 383.407 155 383.395C155 383.382 155 383.369 155 383.356C155 383.343 155 383.33 155 383.317C155 383.304 155 383.292 155 383.279C155 383.266 155 383.253 155 383.24C155 383.227 155 383.214 155 383.201C155 383.189 155 383.176 155 383.163C155 383.15 155 383.137 155 383.124C155 383.111 155 383.098 155 383.086C155 383.073 155 383.06 155 383.047C155 383.034 155 383.021 155 383.008C155 382.995 155 382.982 155 382.97C155 382.957 155 382.944 155 382.931C155 382.918 155 382.905 155 382.892C155 382.879 155 382.867 155 382.854C155 382.841 155 382.828 155 382.815C155 382.802 155 382.789 155 382.776C155 382.764 155 382.751 155 382.738C155 382.725 155 382.712 155 382.699C155 382.686 155 382.673 155 382.661C155 382.648 155 382.635 155 382.622C155 382.609 155 382.596 155 382.583C155 382.57 155 382.558 155 382.545C155 382.532 155 382.519 155 382.506C155 382.493 155 382.48 155 382.467C155 382.455 155 382.442 155 382.429C155 382.416 155 382.403 155 382.39C155 382.377 155 382.364 155 382.352C155 382.339 155 382.326 155 382.313C155 382.3 155 382.287 155 382.274C155 382.261 155 382.249 155 382.236C155 382.223 155 382.21 155 382.197C155 382.184 155 382.171 155 382.158C155 382.146 155 382.133 155 382.12C155 382.107 155 382.094 155 382.081C155 382.068 155 382.055 155 382.043C155 382.03 155 382.017 155 382.004C155 381.991 155 381.978 155 381.965C155 381.952 155 381.94 155 381.927C155 381.914 155 381.901 155 381.888C155 381.875 155 381.862 155 381.849C155 381.837 155 381.824 155 381.811C155 381.798 155 381.785 155 381.772C155 381.759 155 381.746 155 381.734C155 381.721 155 381.708 155 381.695C155 381.682 155 381.669 155 381.656C155 381.643 155 381.631 155 381.618C155 381.605 155 381.592 155 381.579C155 381.566 155 381.553 155 381.54C155 381.528 155 381.515 155 381.502C155 381.489 155 381.476 155 381.463C155 381.45 155 381.437 155 381.425C155 381.412 155 381.399 155 381.386C155 381.373 155 381.36 155 381.347C155 381.334 155 381.322 155 381.309C155 381.296 155 381.283 155 381.27C155 381.257 155 381.244 155 381.231C155 381.219 155 381.206 155 381.193C155 381.18 155 381.167 155 381.154C155 381.141 155 381.128 155 381.116C155 381.103 155 381.09 155 381.077C155 381.064 155 381.051 155 381.038C155 381.025 155 381.013 155 381C155 380.987 155 380.974 155 380.961C155 380.948 155 380.935 155 380.922C155 380.91 155 380.897 155 380.884C155 380.871 155 380.858 155 380.845C155 380.832 155 380.82 155 380.807C155 380.794 155 380.781 155 380.768C155 380.755 155 380.742 155 380.729C155 380.717 155 380.704 155 380.691C155 380.678 155 380.665 155 380.652C155 380.639 155 380.626 155 380.614C155 380.601 155 380.588 155 380.575C155 380.562 155 380.549 155 380.536C155 380.523 155 380.511 155 380.498C155 380.485 155 380.472 155 380.459C155 380.446 155 380.433 155 380.42C155 380.408 155 380.395 155 380.382C155 380.369 155 380.356 155 380.343C155 380.33 155 380.317 155 380.305C155 380.292 155 380.279 155 380.266C155 380.253 155 380.24 155 380.227C155 380.214 155 380.202 155 380.189C155 380.176 155 380.163 155 380.15C155 380.137 155 380.124 155 380.111C155 380.099 155 380.086 155 380.073C155 380.06 155 380.047 155 380.034C155 380.021 155 380.008 155 379.996C155 379.983 155 379.97 155 379.957C155 379.944 155 379.931 155 379.918C155 379.905 155 379.893 155 379.88C155 379.867 155 379.854 155 379.841C155 379.828 155 379.815 155 379.802C155 379.79 155 379.777 155 379.764C155 379.751 155 379.738 155 379.725C155 379.712 155 379.7 155 379.687C155 379.674 155 379.661 155 379.648C155 379.635 155 379.622 155 379.609C155 379.597 155 379.584 155 379.571C155 379.558 155 379.545 155 379.532C155 379.519 155 379.506 155 379.494C155 379.481 155 379.468 155 379.455C155 379.442 155 379.429 155 379.416C155 379.403 155 379.391 155 379.378C155 379.365 155 379.352 155 379.339C155 379.326 155 379.313 155 379.3C155 379.288 155 379.275 155 379.262C155 379.249 155 379.236 155 379.223C155 379.21 155 379.197 155 379.185C155 379.172 155 379.159 155 379.146C155 379.133 155 379.12 155 379.107C155 379.094 155 379.082 155 379.069C155 379.056 155 379.043 155 379.03C155 379.017 155 379.004 155 378.991C155 378.979 155 378.966 155 378.953C155 378.94 155 378.927 155 378.914C155 378.901 155 378.889 155 378.876C155 378.863 155 378.85 155 378.837C155 378.824 155 378.811 155 378.798C155 378.786 155 378.773 155 378.76C155 378.747 155 378.734 155 378.721C155 378.708 155 378.695 155 378.683C155 378.67 155 378.657 155 378.644C155 378.631 155 378.618 155 378.605C155 378.592 155 378.58 155 378.567C155 378.554 155 378.541 155 378.528C155 378.515 155 378.502 155 378.489C155 378.477 155 378.464 155 378.451C155 378.438 155 378.425 155 378.412C155 378.399 155 378.386 155 378.374C155 378.361 155 378.348 155 378.335C155 378.322 155 378.309 155 378.296C155 378.283 155 378.271 155 378.258C155 378.245 155 378.232 155 378.219C155 378.206 155 378.193 155 378.181C155 378.168 155 378.155 155 378.142C155 378.129 155 378.116 155 378.103C155 378.09 155 378.078 155 378.065C155 378.052 155 378.039 155 378.026C155 378.013 155 378 155 377.987C155 377.975 155 377.962 155 377.949C155 377.936 155 377.923 155 377.91C155 377.897 155 377.884 155 377.872C155 377.859 155 377.846 155 377.833C155 377.82 155 377.807 155 377.794C155 377.781 155 377.769 155 377.756C155 377.743 155 377.73 155 377.717C155 377.704 155 377.691 155 377.678C155 377.666 155 377.653 155 377.64C155 377.627 155 377.614 155 377.601C155 377.588 155 377.576 155 377.563C155 377.55 155 377.537 155 377.524C155 377.511 155 377.498 155 377.485C155 377.473 155 377.46 155 377.447C155 377.434 155 377.421 155 377.408C155 377.395 155 377.382 155 377.37C155 377.357 155 377.344 155 377.331C155 377.318 155 377.305 155 377.292C155 377.279 155 377.267 155 377.254C155 377.241 155 377.228 155 377.215C155 377.202 155 377.189 155 377.176C155 377.164 155 377.151 155 377.138C155 377.125 155 377.112 155 377.099C155 377.086 155 377.073 155 377.061C155 377.048 155 377.035 155 377.022C155 377.009 155 376.996 155 376.983C155 376.971 155 376.958 155 376.945C155 376.932 155 376.919 155 376.906C155 376.893 155 376.88 155 376.868C155 376.855 155 376.842 155 376.829C155 376.816 155 376.803 155 376.79C155 376.777 155 376.765 155 376.752C155 376.739 155 376.726 155 376.713C155 376.7 155 376.687 155 376.674C155 376.662 155 376.649 155 376.636C155 376.623 155 376.61 155 376.597C155 376.584 155 376.571 155 376.559C155 376.546 155 376.533 155 376.52C155 376.507 155 376.494 155 376.481C155 376.468 155 376.456 155 376.443C155 376.43 155 376.417 155 376.404C155 376.391 155 376.378 155 376.366C155 376.353 155 376.34 155 376.327C155 376.314 155 376.301 155 376.288C155 376.275 155 376.263 155 376.25C155 376.237 155 376.224 155 376.211C155 376.198 155 376.185 155 376.172C155 376.16 155 376.147 155 376.134C155 376.121 155 376.108 155 376.095C155 376.082 155 376.069 155 376.057C155 376.044 155 376.031 155 376.018C155 376.005 155 375.992 155 375.979C155 375.966 155 375.954 155 375.941C155 375.928 155 375.915 155 375.902C155 375.889 155 375.876 155 375.863C155 375.851 155 375.838 155 375.825C155 375.812 155 375.799 155 375.786C155 375.773 155 375.761 155 375.748C155 375.735 155 375.722 155 375.709C155 375.696 155 375.683 155 375.67C155 375.658 155 375.645 155 375.632C155 375.619 155 375.606 155 375.593C155 375.58 155 375.567 155 375.555C155 375.542 155 375.529 155 375.516C155 375.503 155 375.49 155 375.477C155 375.464 155 375.452 155 375.439C155 375.426 155 375.413 155 375.4C155 375.387 155 375.374 155 375.361C155 375.349 155 375.336 155 375.323C155 375.31 155 375.297 155 375.284C155 375.271 155 375.258 155 375.246C155 375.233 155 375.22 155 375.207C155 375.194 155 375.181 155 375.168C155 375.156 155 375.143 155 375.13C155 375.117 155 375.104 155 375.091C155 375.078 155 375.065 155 375.053C155 375.04 155 375.027 155 375.014C155 375.001 155 374.988 155 374.975C155 374.962 155 374.95 155 374.937C155 374.924 155 374.911 155 374.898C155 374.885 155 374.872 155 374.859C155 374.847 155 374.834 155 374.821C155 374.808 155 374.795 155 374.782C155 374.769 155 374.756 155 374.744C155 374.731 155 374.718 155 374.705C155 374.692 155 374.679 155 374.666C155 374.653 155 374.641 155 374.628C155 374.615 155 374.602 155 374.589C155 374.576 155 374.563 155 374.551C155 374.538 155 374.525 155 374.512C155 374.499 155 374.486 155 374.473C155 374.46 155 374.448 155 374.435C155 374.422 155 374.409 155 374.396C155 374.383 155 374.37 155 374.357C155 374.345 155 374.332 155 374.319C155 374.306 155 374.293 155 374.28C155 374.267 155 374.254 155 374.242C155 374.229 155 374.216 155 374.203C155 374.19 155 374.177 155 374.164C155 374.151 155 374.139 155 374.126C155 374.113 155 374.1 155 374.087C155 374.074 155 374.061 155 374.048C155 374.036 155 374.023 155 374.01C155 373.997 155 373.984 155 373.971C155 373.958 155 373.945 155 373.933C155 373.92 155 373.907 155 373.894C155 373.881 155 373.868 155 373.855C155 373.843 155 373.83 155 373.817C155 373.804 155 373.791 155 373.778C155 373.765 155 373.752 155 373.74C155 373.727 155 373.714 155 373.701C155 373.688 155 373.675 155 373.662C155 373.649 155 373.637 155 373.624C155 373.611 155 373.598 155 373.585C155 373.572 155 373.559 155 373.546C155 373.534 155 373.521 155 373.508C155 373.495 155 373.482 155 373.469C155 373.456 155 373.443 155 373.431C155 373.418 155 373.405 155 373.392C155 373.379 155 373.366 155 373.353C155 373.34 155 373.328 155 373.315C155 373.302 155 373.289 155 373.276C155 373.263 155 373.25 155 373.237C155 373.225 155 373.212 155 373.199C155 373.186 155 373.173 155 373.16C155 373.147 155 373.134 155 373.122C155 373.109 155 373.096 155 373.083C155 373.07 155 373.057 155 373.044C155 373.032 155 373.019 155 373.006C155 372.993 155 372.98 155 372.967C155 372.954 155 372.941 155 372.929C155 372.916 155 372.903 155 372.89C155 372.877 155 372.864 155 372.851C155 372.838 155 372.826 155 372.813C155 372.8 155 372.787 155 372.774C155 372.761 155 372.748 155 372.735C155 372.723 155 372.71 155 372.697C155 372.684 155 372.671 155 372.658C155 372.645 155 372.632 155 372.62C155 372.607 155 372.594 155 372.581C155 372.568 155 372.555 155 372.542C155 372.529 155 372.517 155 372.504C155 372.491 155 372.478 155 372.465C155 372.452 155 372.439 155 372.426C155 372.414 155 372.401 155 372.388C155 372.375 155 372.362 155 372.349C155 372.336 155 372.323 155 372.311C155 372.298 155 372.285 155 372.272C155 372.259 155 372.246 155 372.233C155 372.22 155 372.208 155 372.195C155 372.182 155 372.169 155 372.156C155 372.143 155 372.13 155 372.117C155 372.105 155 372.092 155 372.079C155 372.066 155 372.053 155 372.04C155 372.027 155 372.014 155 372.002C155 371.989 155 371.976 155 371.963C155 371.95 155 371.937 155 371.924C155 371.911 155 371.899 155 371.886C155 371.873 155 371.86 155 371.847C155 371.834 155 371.821 155 371.809C155 371.796 155 371.783 155 371.77C155 371.757 155 371.744 155 371.731C155 371.718 155 371.706 155 371.693C155 371.68 155 371.667 155 371.654C155 371.641 155 371.628 155 371.615C155 371.603 155 371.59 155 371.577C155 371.564 155 371.551 155 371.538C155 371.525 155 371.512 155 371.5C155 371.487 155 371.474 155 371.461C155 371.448 155 371.435 155 371.422C155 371.409 155 371.397 155 371.384C155 371.371 155 371.358 155 371.345C155 371.332 155 371.319 155 371.306C155 371.294 155 371.281 155 371.268C155 371.255 155 371.242 155 371.229C155 371.216 155 371.203 155 371.191C155 371.178 155 371.165 155 371.152C155 371.139 155 371.126 155 371.113C155 371.1 155 371.088 155 371.075C155 371.062 155 371.049 155 371.036C155 371.023 155 371.01 155 370.997C155 370.985 155 370.972 155 370.959C155 370.946 155 370.933 155 370.92C155 370.907 155 370.894 155 370.882C155 370.869 155 370.856 155 370.843C155 370.83 155 370.817 155 370.804C155 370.791 155 370.779 155 370.766C155 370.753 155 370.74 155 370.727C155 370.714 155 370.701 155 370.688C155 370.676 155 370.663 155 370.65C155 370.637 155 370.624 155 370.611C155 370.598 155 370.585 155 370.573C155 370.56 155 370.547 155 370.534C155 370.521 155 370.508 155 370.495C155 370.482 155 370.47 155 370.457C155 370.444 155 370.431 155 370.418C155 370.405 155 370.392 155 370.379C155 370.367 155 370.354 155 370.341C155 370.328 155 370.315 155 370.302C155 370.289 155 370.276 155 370.264C155 370.251 155 370.238 155 370.225C155 370.212 155 370.199 155 370.186C155 370.173 155 370.161 155 370.148C155 370.135 155 370.122 155 370.109C155 370.096 155 370.083 155 370.07C155 370.058 155 370.045 155 370.032C155 370.019 155 370.006 155 369.993C155 369.98 155 369.967 155 369.954C155 369.942 155 369.929 155 369.916C155 369.903 155 369.89 155 369.877C155 369.864 155 369.851 155 369.839C155 369.826 155 369.813 155 369.8C155 369.787 155 369.774 155 369.761C155 369.748 155 369.736 155 369.723C155 369.71 155 369.697 155 369.684C155 369.671 155 369.658 155 369.645C155 369.633 155 369.62 155 369.607C155 369.594 155 369.581 155 369.568C155 369.555 155 369.542 155 369.53C155 369.517 155 369.504 155 369.491C155 369.478 155 369.465 155 369.452C155 369.439 155 369.427 155 369.414C155 369.401 155 369.388 155 369.375C155 369.362 155 369.349 155 369.336C155 369.324 155 369.311 155 369.298C155 369.285 155 369.272 155 369.259C155 369.246 155 369.233 155 369.221C155 369.208 155 369.195 155 369.182C155 369.169 155 369.156 155 369.143C155 369.13 155 369.118 155 369.105C155 369.092 155 369.079 155 369.066C155 369.053 155 369.04 155 369.027C155 369.015 155 369.002 155 368.989C155 368.976 155 368.963 155 368.95C155 368.937 155 368.924 155 368.911C155 368.899 155 368.886 155 368.873C155 368.86 155 368.847 155 368.834C155 368.821 155 368.808 155 368.796C155 368.783 155 368.77 155 368.757C155 368.744 155 368.731 155 368.718C155 368.705 155 368.693 155 368.68C155 368.667 155 368.654 155 368.641C155 368.628 155 368.615 155 368.602C155 368.59 155 368.577 155 368.564C155 368.551 155 368.538 155 368.525C155 368.512 155 368.499 155 368.487C155 368.474 155 368.461 155 368.448C155 368.435 155 368.422 155 368.409C155 368.396 155 368.383 155 368.371C155 368.358 155 368.345 155 368.332C155 368.319 155 368.306 155 368.293C155 368.28 155 368.268 155 368.255C155 368.242 155 368.229 155 368.216C155 368.203 155 368.19 155 368.177C155 368.165 155 368.152 155 368.139C155 368.126 155 368.113 155 368.1C155 368.087 155 368.074 155 368.062C155 368.049 155 368.036 155 368.023C155 368.01 155 367.997 155 367.984C155 367.971 155 367.959 155 367.946C155 367.933 155 367.92 155 367.907C155 367.894 155 367.881 155 367.868C155 367.855 155 367.843 155 367.83C155 367.817 155 367.804 155 367.791C155 367.778 155 367.765 155 367.752C155 367.74 155 367.727 155 367.714C155 367.701 155 367.688 155 367.675C155 367.662 155 367.649 155 367.637C155 367.624 155 367.611 155 367.598C155 367.585 155 367.572 155 367.559C155 367.546 155 367.534 155 367.521C155 367.508 155 367.495 155 367.482C155 367.469 155 367.456 155 367.443C155 367.43 155 367.418 155 367.405C155 367.392 155 367.379 155 367.366C155 367.353 155 367.34 155 367.327C155 367.315 155 367.302 155 367.289C155 367.276 155 367.263 155 367.25C155 367.237 155 367.224 155 367.212C155 367.199 155 367.186 155 367.173C155 367.16 155 367.147 155 367.134C155 367.121 155 367.108 155 367.096C155 367.083 155 367.07 155 367.057C155 367.044 155 367.031 155 367.018C155 367.005 155 366.993 155 366.98C155 366.967 155 366.954 155 366.941C155 366.928 155 366.915 155 366.902C155 366.89 155 366.877 155 366.864C155 366.851 155 366.838 155 366.825C155 366.812 155 366.799 155 366.786C155 366.774 155 366.761 155 366.748C155 366.735 155 366.722 155 366.709C155 366.696 155 366.683 155 366.671C155 366.658 155 366.645 155 366.632C155 366.619 155 366.606 155 366.593C155 366.58 155 366.567 155 366.555H153C153 366.567 153 366.58 153 366.593C153 366.606 153 366.619 153 366.632C153 366.645 153 366.658 153 366.671C153 366.683 153 366.696 153 366.709C153 366.722 153 366.735 153 366.748C153 366.761 153 366.774 153 366.786C153 366.799 153 366.812 153 366.825C153 366.838 153 366.851 153 366.864C153 366.877 153 366.89 153 366.902C153 366.915 153 366.928 153 366.941C153 366.954 153 366.967 153 366.98C153 366.993 153 367.005 153 367.018C153 367.031 153 367.044 153 367.057C153 367.07 153 367.083 153 367.096C153 367.108 153 367.121 153 367.134C153 367.147 153 367.16 153 367.173C153 367.186 153 367.199 153 367.212C153 367.224 153 367.237 153 367.25C153 367.263 153 367.276 153 367.289C153 367.302 153 367.315 153 367.327C153 367.34 153 367.353 153 367.366C153 367.379 153 367.392 153 367.405C153 367.418 153 367.43 153 367.443C153 367.456 153 367.469 153 367.482C153 367.495 153 367.508 153 367.521C153 367.534 153 367.546 153 367.559C153 367.572 153 367.585 153 367.598C153 367.611 153 367.624 153 367.637C153 367.649 153 367.662 153 367.675C153 367.688 153 367.701 153 367.714C153 367.727 153 367.74 153 367.752C153 367.765 153 367.778 153 367.791C153 367.804 153 367.817 153 367.83C153 367.843 153 367.855 153 367.868C153 367.881 153 367.894 153 367.907C153 367.92 153 367.933 153 367.946C153 367.959 153 367.971 153 367.984C153 367.997 153 368.01 153 368.023C153 368.036 153 368.049 153 368.062C153 368.074 153 368.087 153 368.1C153 368.113 153 368.126 153 368.139C153 368.152 153 368.165 153 368.177C153 368.19 153 368.203 153 368.216C153 368.229 153 368.242 153 368.255C153 368.268 153 368.28 153 368.293C153 368.306 153 368.319 153 368.332C153 368.345 153 368.358 153 368.371C153 368.383 153 368.396 153 368.409C153 368.422 153 368.435 153 368.448C153 368.461 153 368.474 153 368.487C153 368.499 153 368.512 153 368.525C153 368.538 153 368.551 153 368.564C153 368.577 153 368.59 153 368.602C153 368.615 153 368.628 153 368.641C153 368.654 153 368.667 153 368.68C153 368.693 153 368.705 153 368.718C153 368.731 153 368.744 153 368.757C153 368.77 153 368.783 153 368.796C153 368.808 153 368.821 153 368.834C153 368.847 153 368.86 153 368.873C153 368.886 153 368.899 153 368.911C153 368.924 153 368.937 153 368.95C153 368.963 153 368.976 153 368.989C153 369.002 153 369.015 153 369.027C153 369.04 153 369.053 153 369.066C153 369.079 153 369.092 153 369.105C153 369.118 153 369.13 153 369.143C153 369.156 153 369.169 153 369.182C153 369.195 153 369.208 153 369.221C153 369.233 153 369.246 153 369.259C153 369.272 153 369.285 153 369.298C153 369.311 153 369.324 153 369.336C153 369.349 153 369.362 153 369.375C153 369.388 153 369.401 153 369.414C153 369.427 153 369.439 153 369.452C153 369.465 153 369.478 153 369.491C153 369.504 153 369.517 153 369.53C153 369.542 153 369.555 153 369.568C153 369.581 153 369.594 153 369.607C153 369.62 153 369.633 153 369.645C153 369.658 153 369.671 153 369.684C153 369.697 153 369.71 153 369.723C153 369.736 153 369.748 153 369.761C153 369.774 153 369.787 153 369.8C153 369.813 153 369.826 153 369.839C153 369.851 153 369.864 153 369.877C153 369.89 153 369.903 153 369.916C153 369.929 153 369.942 153 369.954C153 369.967 153 369.98 153 369.993C153 370.006 153 370.019 153 370.032C153 370.045 153 370.058 153 370.07C153 370.083 153 370.096 153 370.109C153 370.122 153 370.135 153 370.148C153 370.161 153 370.173 153 370.186C153 370.199 153 370.212 153 370.225C153 370.238 153 370.251 153 370.264C153 370.276 153 370.289 153 370.302C153 370.315 153 370.328 153 370.341C153 370.354 153 370.367 153 370.379C153 370.392 153 370.405 153 370.418C153 370.431 153 370.444 153 370.457C153 370.47 153 370.482 153 370.495C153 370.508 153 370.521 153 370.534C153 370.547 153 370.56 153 370.573C153 370.585 153 370.598 153 370.611C153 370.624 153 370.637 153 370.65C153 370.663 153 370.676 153 370.688C153 370.701 153 370.714 153 370.727C153 370.74 153 370.753 153 370.766C153 370.779 153 370.791 153 370.804C153 370.817 153 370.83 153 370.843C153 370.856 153 370.869 153 370.882C153 370.894 153 370.907 153 370.92C153 370.933 153 370.946 153 370.959C153 370.972 153 370.985 153 370.997C153 371.01 153 371.023 153 371.036C153 371.049 153 371.062 153 371.075C153 371.088 153 371.1 153 371.113C153 371.126 153 371.139 153 371.152C153 371.165 153 371.178 153 371.191C153 371.203 153 371.216 153 371.229C153 371.242 153 371.255 153 371.268C153 371.281 153 371.294 153 371.306C153 371.319 153 371.332 153 371.345C153 371.358 153 371.371 153 371.384C153 371.397 153 371.409 153 371.422C153 371.435 153 371.448 153 371.461C153 371.474 153 371.487 153 371.5C153 371.512 153 371.525 153 371.538C153 371.551 153 371.564 153 371.577C153 371.59 153 371.603 153 371.615C153 371.628 153 371.641 153 371.654C153 371.667 153 371.68 153 371.693C153 371.706 153 371.718 153 371.731C153 371.744 153 371.757 153 371.77C153 371.783 153 371.796 153 371.809C153 371.821 153 371.834 153 371.847C153 371.86 153 371.873 153 371.886C153 371.899 153 371.911 153 371.924C153 371.937 153 371.95 153 371.963C153 371.976 153 371.989 153 372.002C153 372.014 153 372.027 153 372.04C153 372.053 153 372.066 153 372.079C153 372.092 153 372.105 153 372.117C153 372.13 153 372.143 153 372.156C153 372.169 153 372.182 153 372.195C153 372.208 153 372.22 153 372.233C153 372.246 153 372.259 153 372.272C153 372.285 153 372.298 153 372.311C153 372.323 153 372.336 153 372.349C153 372.362 153 372.375 153 372.388C153 372.401 153 372.414 153 372.426C153 372.439 153 372.452 153 372.465C153 372.478 153 372.491 153 372.504C153 372.517 153 372.529 153 372.542C153 372.555 153 372.568 153 372.581C153 372.594 153 372.607 153 372.62C153 372.632 153 372.645 153 372.658C153 372.671 153 372.684 153 372.697C153 372.71 153 372.723 153 372.735C153 372.748 153 372.761 153 372.774C153 372.787 153 372.8 153 372.813C153 372.826 153 372.838 153 372.851C153 372.864 153 372.877 153 372.89C153 372.903 153 372.916 153 372.929C153 372.941 153 372.954 153 372.967C153 372.98 153 372.993 153 373.006C153 373.019 153 373.032 153 373.044C153 373.057 153 373.07 153 373.083C153 373.096 153 373.109 153 373.122C153 373.134 153 373.147 153 373.16C153 373.173 153 373.186 153 373.199C153 373.212 153 373.225 153 373.237C153 373.25 153 373.263 153 373.276C153 373.289 153 373.302 153 373.315C153 373.328 153 373.34 153 373.353C153 373.366 153 373.379 153 373.392C153 373.405 153 373.418 153 373.431C153 373.443 153 373.456 153 373.469C153 373.482 153 373.495 153 373.508C153 373.521 153 373.534 153 373.546C153 373.559 153 373.572 153 373.585C153 373.598 153 373.611 153 373.624C153 373.637 153 373.649 153 373.662C153 373.675 153 373.688 153 373.701C153 373.714 153 373.727 153 373.74C153 373.752 153 373.765 153 373.778C153 373.791 153 373.804 153 373.817C153 373.83 153 373.843 153 373.855C153 373.868 153 373.881 153 373.894C153 373.907 153 373.92 153 373.933C153 373.945 153 373.958 153 373.971C153 373.984 153 373.997 153 374.01C153 374.023 153 374.036 153 374.048C153 374.061 153 374.074 153 374.087C153 374.1 153 374.113 153 374.126C153 374.139 153 374.151 153 374.164C153 374.177 153 374.19 153 374.203C153 374.216 153 374.229 153 374.242C153 374.254 153 374.267 153 374.28C153 374.293 153 374.306 153 374.319C153 374.332 153 374.345 153 374.357C153 374.37 153 374.383 153 374.396C153 374.409 153 374.422 153 374.435C153 374.448 153 374.46 153 374.473C153 374.486 153 374.499 153 374.512C153 374.525 153 374.538 153 374.551C153 374.563 153 374.576 153 374.589C153 374.602 153 374.615 153 374.628C153 374.641 153 374.653 153 374.666C153 374.679 153 374.692 153 374.705C153 374.718 153 374.731 153 374.744C153 374.756 153 374.769 153 374.782C153 374.795 153 374.808 153 374.821C153 374.834 153 374.847 153 374.859C153 374.872 153 374.885 153 374.898C153 374.911 153 374.924 153 374.937C153 374.95 153 374.962 153 374.975C153 374.988 153 375.001 153 375.014C153 375.027 153 375.04 153 375.053C153 375.065 153 375.078 153 375.091C153 375.104 153 375.117 153 375.13C153 375.143 153 375.156 153 375.168C153 375.181 153 375.194 153 375.207C153 375.22 153 375.233 153 375.246C153 375.258 153 375.271 153 375.284C153 375.297 153 375.31 153 375.323C153 375.336 153 375.349 153 375.361C153 375.374 153 375.387 153 375.4C153 375.413 153 375.426 153 375.439C153 375.452 153 375.464 153 375.477C153 375.49 153 375.503 153 375.516C153 375.529 153 375.542 153 375.555C153 375.567 153 375.58 153 375.593C153 375.606 153 375.619 153 375.632C153 375.645 153 375.658 153 375.67C153 375.683 153 375.696 153 375.709C153 375.722 153 375.735 153 375.748C153 375.761 153 375.773 153 375.786C153 375.799 153 375.812 153 375.825C153 375.838 153 375.851 153 375.863C153 375.876 153 375.889 153 375.902C153 375.915 153 375.928 153 375.941C153 375.954 153 375.966 153 375.979C153 375.992 153 376.005 153 376.018C153 376.031 153 376.044 153 376.057C153 376.069 153 376.082 153 376.095C153 376.108 153 376.121 153 376.134C153 376.147 153 376.16 153 376.172C153 376.185 153 376.198 153 376.211C153 376.224 153 376.237 153 376.25C153 376.263 153 376.275 153 376.288C153 376.301 153 376.314 153 376.327C153 376.34 153 376.353 153 376.366C153 376.378 153 376.391 153 376.404C153 376.417 153 376.43 153 376.443C153 376.456 153 376.468 153 376.481C153 376.494 153 376.507 153 376.52C153 376.533 153 376.546 153 376.559C153 376.571 153 376.584 153 376.597C153 376.61 153 376.623 153 376.636C153 376.649 153 376.662 153 376.674C153 376.687 153 376.7 153 376.713C153 376.726 153 376.739 153 376.752C153 376.765 153 376.777 153 376.79C153 376.803 153 376.816 153 376.829C153 376.842 153 376.855 153 376.868C153 376.88 153 376.893 153 376.906C153 376.919 153 376.932 153 376.945C153 376.958 153 376.971 153 376.983C153 376.996 153 377.009 153 377.022C153 377.035 153 377.048 153 377.061C153 377.073 153 377.086 153 377.099C153 377.112 153 377.125 153 377.138C153 377.151 153 377.164 153 377.176C153 377.189 153 377.202 153 377.215C153 377.228 153 377.241 153 377.254C153 377.267 153 377.279 153 377.292C153 377.305 153 377.318 153 377.331C153 377.344 153 377.357 153 377.37C153 377.382 153 377.395 153 377.408C153 377.421 153 377.434 153 377.447C153 377.46 153 377.473 153 377.485C153 377.498 153 377.511 153 377.524C153 377.537 153 377.55 153 377.563C153 377.576 153 377.588 153 377.601C153 377.614 153 377.627 153 377.64C153 377.653 153 377.666 153 377.678C153 377.691 153 377.704 153 377.717C153 377.73 153 377.743 153 377.756C153 377.769 153 377.781 153 377.794C153 377.807 153 377.82 153 377.833C153 377.846 153 377.859 153 377.872C153 377.884 153 377.897 153 377.91C153 377.923 153 377.936 153 377.949C153 377.962 153 377.975 153 377.987C153 378 153 378.013 153 378.026C153 378.039 153 378.052 153 378.065C153 378.078 153 378.09 153 378.103C153 378.116 153 378.129 153 378.142C153 378.155 153 378.168 153 378.181C153 378.193 153 378.206 153 378.219C153 378.232 153 378.245 153 378.258C153 378.271 153 378.283 153 378.296C153 378.309 153 378.322 153 378.335C153 378.348 153 378.361 153 378.374C153 378.386 153 378.399 153 378.412C153 378.425 153 378.438 153 378.451C153 378.464 153 378.477 153 378.489C153 378.502 153 378.515 153 378.528C153 378.541 153 378.554 153 378.567C153 378.58 153 378.592 153 378.605C153 378.618 153 378.631 153 378.644C153 378.657 153 378.67 153 378.683C153 378.695 153 378.708 153 378.721C153 378.734 153 378.747 153 378.76C153 378.773 153 378.786 153 378.798C153 378.811 153 378.824 153 378.837C153 378.85 153 378.863 153 378.876C153 378.889 153 378.901 153 378.914C153 378.927 153 378.94 153 378.953C153 378.966 153 378.979 153 378.991C153 379.004 153 379.017 153 379.03C153 379.043 153 379.056 153 379.069C153 379.082 153 379.094 153 379.107C153 379.12 153 379.133 153 379.146C153 379.159 153 379.172 153 379.185C153 379.197 153 379.21 153 379.223C153 379.236 153 379.249 153 379.262C153 379.275 153 379.288 153 379.3C153 379.313 153 379.326 153 379.339C153 379.352 153 379.365 153 379.378C153 379.391 153 379.403 153 379.416C153 379.429 153 379.442 153 379.455C153 379.468 153 379.481 153 379.494C153 379.506 153 379.519 153 379.532C153 379.545 153 379.558 153 379.571C153 379.584 153 379.597 153 379.609C153 379.622 153 379.635 153 379.648C153 379.661 153 379.674 153 379.687C153 379.7 153 379.712 153 379.725C153 379.738 153 379.751 153 379.764C153 379.777 153 379.79 153 379.802C153 379.815 153 379.828 153 379.841C153 379.854 153 379.867 153 379.88C153 379.893 153 379.905 153 379.918C153 379.931 153 379.944 153 379.957C153 379.97 153 379.983 153 379.996C153 380.008 153 380.021 153 380.034C153 380.047 153 380.06 153 380.073C153 380.086 153 380.099 153 380.111C153 380.124 153 380.137 153 380.15C153 380.163 153 380.176 153 380.189C153 380.202 153 380.214 153 380.227C153 380.24 153 380.253 153 380.266C153 380.279 153 380.292 153 380.305C153 380.317 153 380.33 153 380.343C153 380.356 153 380.369 153 380.382C153 380.395 153 380.408 153 380.42C153 380.433 153 380.446 153 380.459C153 380.472 153 380.485 153 380.498C153 380.511 153 380.523 153 380.536C153 380.549 153 380.562 153 380.575C153 380.588 153 380.601 153 380.614C153 380.626 153 380.639 153 380.652C153 380.665 153 380.678 153 380.691C153 380.704 153 380.717 153 380.729C153 380.742 153 380.755 153 380.768C153 380.781 153 380.794 153 380.807C153 380.82 153 380.832 153 380.845C153 380.858 153 380.871 153 380.884C153 380.897 153 380.91 153 380.922C153 380.935 153 380.948 153 380.961C153 380.974 153 380.987 153 381C153 381.013 153 381.025 153 381.038C153 381.051 153 381.064 153 381.077C153 381.09 153 381.103 153 381.116C153 381.128 153 381.141 153 381.154C153 381.167 153 381.18 153 381.193C153 381.206 153 381.219 153 381.231C153 381.244 153 381.257 153 381.27C153 381.283 153 381.296 153 381.309C153 381.322 153 381.334 153 381.347C153 381.36 153 381.373 153 381.386C153 381.399 153 381.412 153 381.425C153 381.437 153 381.45 153 381.463C153 381.476 153 381.489 153 381.502C153 381.515 153 381.528 153 381.54C153 381.553 153 381.566 153 381.579C153 381.592 153 381.605 153 381.618C153 381.631 153 381.643 153 381.656C153 381.669 153 381.682 153 381.695C153 381.708 153 381.721 153 381.734C153 381.746 153 381.759 153 381.772C153 381.785 153 381.798 153 381.811C153 381.824 153 381.837 153 381.849C153 381.862 153 381.875 153 381.888C153 381.901 153 381.914 153 381.927C153 381.94 153 381.952 153 381.965C153 381.978 153 381.991 153 382.004C153 382.017 153 382.03 153 382.043C153 382.055 153 382.068 153 382.081C153 382.094 153 382.107 153 382.12C153 382.133 153 382.146 153 382.158C153 382.171 153 382.184 153 382.197C153 382.21 153 382.223 153 382.236C153 382.249 153 382.261 153 382.274C153 382.287 153 382.3 153 382.313C153 382.326 153 382.339 153 382.352C153 382.364 153 382.377 153 382.39C153 382.403 153 382.416 153 382.429C153 382.442 153 382.455 153 382.467C153 382.48 153 382.493 153 382.506C153 382.519 153 382.532 153 382.545C153 382.558 153 382.57 153 382.583C153 382.596 153 382.609 153 382.622C153 382.635 153 382.648 153 382.661C153 382.673 153 382.686 153 382.699C153 382.712 153 382.725 153 382.738C153 382.751 153 382.764 153 382.776C153 382.789 153 382.802 153 382.815C153 382.828 153 382.841 153 382.854C153 382.867 153 382.879 153 382.892C153 382.905 153 382.918 153 382.931C153 382.944 153 382.957 153 382.97C153 382.982 153 382.995 153 383.008C153 383.021 153 383.034 153 383.047C153 383.06 153 383.073 153 383.086C153 383.098 153 383.111 153 383.124C153 383.137 153 383.15 153 383.163C153 383.176 153 383.189 153 383.201C153 383.214 153 383.227 153 383.24C153 383.253 153 383.266 153 383.279C153 383.292 153 383.304 153 383.317C153 383.33 153 383.343 153 383.356C153 383.369 153 383.382 153 383.395C153 383.407 153 383.42 153 383.433C153 383.446 153 383.459 153 383.472C153 383.485 153 383.498 153 383.51C153 383.523 153 383.536 153 383.549C153 383.562 153 383.575 153 383.588C153 383.601 153 383.613 153 383.626C153 383.639 153 383.652 153 383.665C153 383.678 153 383.691 153 383.704C153 383.716 153 383.729 153 383.742C153 383.755 153 383.768 153 383.781C153 383.794 153 383.807 153 383.819C153 383.832 153 383.845 153 383.858C153 383.871 153 383.884 153 383.897C153 383.91 153 383.922 153 383.935C153 383.948 153 383.961 153 383.974C153 383.987 153 384 153 384.013C153 384.026 153 384.038 153 384.051C153 384.064 153 384.077 153 384.09C153 384.103 153 384.116 153 384.129C153 384.141 153 384.154 153 384.167C153 384.18 153 384.193 153 384.206C153 384.219 153 384.232 153 384.244C153 384.257 153 384.27 153 384.283C153 384.296 153 384.309 153 384.322C153 384.335 153 384.347 153 384.36C153 384.373 153 384.386 153 384.399C153 384.412 153 384.425 153 384.438C153 384.45 153 384.463 153 384.476C153 384.489 153 384.502 153 384.515C153 384.528 153 384.541 153 384.554C153 384.566 153 384.579 153 384.592C153 384.605 153 384.618 153 384.631C153 384.644 153 384.657 153 384.669C153 384.682 153 384.695 153 384.708C153 384.721 153 384.734 153 384.747C153 384.76 153 384.772 153 384.785C153 384.798 153 384.811 153 384.824C153 384.837 153 384.85 153 384.863C153 384.875 153 384.888 153 384.901C153 384.914 153 384.927 153 384.94C153 384.953 153 384.966 153 384.978C153 384.991 153 385.004 153 385.017C153 385.03 153 385.043 153 385.056C153 385.069 153 385.082 153 385.094C153 385.107 153 385.12 153 385.133C153 385.146 153 385.159 153 385.172C153 385.185 153 385.197 153 385.21C153 385.223 153 385.236 153 385.249C153 385.262 153 385.275 153 385.288C153 385.3 153 385.313 153 385.326C153 385.339 153 385.352 153 385.365C153 385.378 153 385.391 153 385.404C153 385.416 153 385.429 153 385.442C153 385.455 153 385.468 153 385.481C153 385.494 153 385.507 153 385.519C153 385.532 153 385.545 153 385.558C153 385.571 153 385.584 153 385.597C153 385.61 153 385.622 153 385.635C153 385.648 153 385.661 153 385.674C153 385.687 153 385.7 153 385.713C153 385.726 153 385.738 153 385.751C153 385.764 153 385.777 153 385.79C153 385.803 153 385.816 153 385.829C153 385.841 153 385.854 153 385.867C153 385.88 153 385.893 153 385.906C153 385.919 153 385.932 153 385.944C153 385.957 153 385.97 153 385.983C153 385.996 153 386.009 153 386.022C153 386.035 153 386.048 153 386.06C153 386.073 153 386.086 153 386.099C153 386.112 153 386.125 153 386.138C153 386.151 153 386.163 153 386.176C153 386.189 153 386.202 153 386.215C153 386.228 153 386.241 153 386.254C153 386.266 153 386.279 153 386.292C153 386.305 153 386.318 153 386.331H155ZM154.355 367.489C154.312 367.506 154.147 367.556 153.933 367.484C153.716 367.411 153.614 367.267 153.588 367.224L155.302 366.194C155.167 365.969 154.938 365.712 154.573 365.589C154.212 365.467 153.878 365.531 153.645 365.62L154.355 367.489ZM153.562 367.179C153.724 367.482 153.7 367.783 153.7 368.532H155.7C155.7 368.048 155.784 367.097 155.328 366.239L153.562 367.179ZM153.7 368.534C153.709 373.813 153.709 379.1 153.7 384.379L155.7 384.382C155.709 379.101 155.709 373.811 155.7 368.531L153.7 368.534ZM153.7 384.367C153.697 384.542 153.702 384.757 153.702 384.888C153.703 385.044 153.699 385.166 153.688 385.272C153.666 385.47 153.62 385.57 153.549 385.653L155.069 386.954C155.479 386.475 155.625 385.949 155.675 385.494C155.718 385.106 155.697 384.616 155.7 384.394L153.7 384.367Z" fill="#120032" mask="url(#path-3-inside-1_779_6035)"/>
<mask id="path-5-inside-2_779_6035" fill="white">
<path d="M154.236 366.546C154.154 366.546 154.082 366.555 154 366.564C154 366.029 154 365.494 154 364.958C154.073 364.913 154.145 364.913 154.218 364.94C154.718 365.475 154.709 366.002 154.236 366.546Z"/>
</mask>
<path d="M154.236 366.546C154.154 366.546 154.082 366.555 154 366.564C154 366.029 154 365.494 154 364.958C154.073 364.913 154.145 364.913 154.218 364.94C154.718 365.475 154.709 366.002 154.236 366.546Z" fill="#01A195"/>
<path d="M154.236 366.546V367.546H154.692L154.991 367.201L154.236 366.546ZM154 366.564H153V367.681L154.11 367.558L154 366.564ZM154 364.958L153.471 364.11L153 364.404V364.958H154ZM154.218 364.94L154.949 364.258L154.789 364.086L154.569 364.004L154.218 364.94ZM154.236 365.546C154.087 365.546 153.952 365.563 153.89 365.57L154.11 367.558C154.16 367.552 154.182 367.55 154.206 367.548C154.225 367.546 154.233 367.546 154.236 367.546V365.546ZM155 366.564C155 366.563 155 366.562 155 366.561C155 366.56 155 366.559 155 366.558C155 366.557 155 366.556 155 366.555C155 366.554 155 366.552 155 366.551C155 366.55 155 366.549 155 366.548C155 366.547 155 366.546 155 366.545C155 366.544 155 366.543 155 366.542C155 366.541 155 366.54 155 366.539C155 366.538 155 366.537 155 366.536C155 366.535 155 366.534 155 366.533C155 366.532 155 366.531 155 366.529C155 366.528 155 366.527 155 366.526C155 366.525 155 366.524 155 366.523C155 366.522 155 366.521 155 366.52C155 366.519 155 366.518 155 366.517C155 366.516 155 366.515 155 366.514C155 366.513 155 366.512 155 366.511C155 366.51 155 366.509 155 366.508C155 366.506 155 366.505 155 366.504C155 366.503 155 366.502 155 366.501C155 366.5 155 366.499 155 366.498C155 366.497 155 366.496 155 366.495C155 366.494 155 366.493 155 366.492C155 366.491 155 366.49 155 366.489C155 366.488 155 366.487 155 366.486C155 366.485 155 366.483 155 366.482C155 366.481 155 366.48 155 366.479C155 366.478 155 366.477 155 366.476C155 366.475 155 366.474 155 366.473C155 366.472 155 366.471 155 366.47C155 366.469 155 366.468 155 366.467C155 366.466 155 366.465 155 366.464C155 366.463 155 366.462 155 366.46C155 366.459 155 366.458 155 366.457C155 366.456 155 366.455 155 366.454C155 366.453 155 366.452 155 366.451C155 366.45 155 366.449 155 366.448C155 366.447 155 366.446 155 366.445C155 366.444 155 366.443 155 366.442C155 366.441 155 366.44 155 366.439C155 366.438 155 366.436 155 366.435C155 366.434 155 366.433 155 366.432C155 366.431 155 366.43 155 366.429C155 366.428 155 366.427 155 366.426C155 366.425 155 366.424 155 366.423C155 366.422 155 366.421 155 366.42C155 366.419 155 366.418 155 366.417C155 366.416 155 366.415 155 366.413C155 366.412 155 366.411 155 366.41C155 366.409 155 366.408 155 366.407C155 366.406 155 366.405 155 366.404C155 366.403 155 366.402 155 366.401C155 366.4 155 366.399 155 366.398C155 366.397 155 366.396 155 366.395C155 366.394 155 366.393 155 366.392C155 366.39 155 366.389 155 366.388C155 366.387 155 366.386 155 366.385C155 366.384 155 366.383 155 366.382C155 366.381 155 366.38 155 366.379C155 366.378 155 366.377 155 366.376C155 366.375 155 366.374 155 366.373C155 366.372 155 366.371 155 366.37C155 366.369 155 366.367 155 366.366C155 366.365 155 366.364 155 366.363C155 366.362 155 366.361 155 366.36C155 366.359 155 366.358 155 366.357C155 366.356 155 366.355 155 366.354C155 366.353 155 366.352 155 366.351C155 366.35 155 366.349 155 366.348C155 366.347 155 366.346 155 366.344C155 366.343 155 366.342 155 366.341C155 366.34 155 366.339 155 366.338C155 366.337 155 366.336 155 366.335C155 366.334 155 366.333 155 366.332C155 366.331 155 366.33 155 366.329C155 366.328 155 366.327 155 366.326C155 366.325 155 366.324 155 366.323C155 366.321 155 366.32 155 366.319C155 366.318 155 366.317 155 366.316C155 366.315 155 366.314 155 366.313C155 366.312 155 366.311 155 366.31C155 366.309 155 366.308 155 366.307C155 366.306 155 366.305 155 366.304C155 366.303 155 366.302 155 366.301C155 366.3 155 366.298 155 366.297C155 366.296 155 366.295 155 366.294C155 366.293 155 366.292 155 366.291C155 366.29 155 366.289 155 366.288C155 366.287 155 366.286 155 366.285C155 366.284 155 366.283 155 366.282C155 366.281 155 366.28 155 366.279C155 366.278 155 366.277 155 366.275C155 366.274 155 366.273 155 366.272C155 366.271 155 366.27 155 366.269C155 366.268 155 366.267 155 366.266C155 366.265 155 366.264 155 366.263C155 366.262 155 366.261 155 366.26C155 366.259 155 366.258 155 366.257C155 366.256 155 366.255 155 366.254C155 366.252 155 366.251 155 366.25C155 366.249 155 366.248 155 366.247C155 366.246 155 366.245 155 366.244C155 366.243 155 366.242 155 366.241C155 366.24 155 366.239 155 366.238C155 366.237 155 366.236 155 366.235C155 366.234 155 366.233 155 366.232C155 366.231 155 366.229 155 366.228C155 366.227 155 366.226 155 366.225C155 366.224 155 366.223 155 366.222C155 366.221 155 366.22 155 366.219C155 366.218 155 366.217 155 366.216C155 366.215 155 366.214 155 366.213C155 366.212 155 366.211 155 366.21C155 366.209 155 366.208 155 366.206C155 366.205 155 366.204 155 366.203C155 366.202 155 366.201 155 366.2C155 366.199 155 366.198 155 366.197C155 366.196 155 366.195 155 366.194C155 366.193 155 366.192 155 366.191C155 366.19 155 366.189 155 366.188C155 366.187 155 366.186 155 366.185C155 366.183 155 366.182 155 366.181C155 366.18 155 366.179 155 366.178C155 366.177 155 366.176 155 366.175C155 366.174 155 366.173 155 366.172C155 366.171 155 366.17 155 366.169C155 366.168 155 366.167 155 366.166C155 366.165 155 366.164 155 366.163C155 366.162 155 366.16 155 366.159C155 366.158 155 366.157 155 366.156C155 366.155 155 366.154 155 366.153C155 366.152 155 366.151 155 366.15C155 366.149 155 366.148 155 366.147C155 366.146 155 366.145 155 366.144C155 366.143 155 366.142 155 366.141C155 366.14 155 366.139 155 366.137C155 366.136 155 366.135 155 366.134C155 366.133 155 366.132 155 366.131C155 366.13 155 366.129 155 366.128C155 366.127 155 366.126 155 366.125C155 366.124 155 366.123 155 366.122C155 366.121 155 366.12 155 366.119C155 366.118 155 366.117 155 366.116C155 366.114 155 366.113 155 366.112C155 366.111 155 366.11 155 366.109C155 366.108 155 366.107 155 366.106C155 366.105 155 366.104 155 366.103C155 366.102 155 366.101 155 366.1C155 366.099 155 366.098 155 366.097C155 366.096 155 366.095 155 366.094C155 366.093 155 366.091 155 366.09C155 366.089 155 366.088 155 366.087C155 366.086 155 366.085 155 366.084C155 366.083 155 366.082 155 366.081C155 366.08 155 366.079 155 366.078C155 366.077 155 366.076 155 366.075C155 366.074 155 366.073 155 366.072C155 366.071 155 366.07 155 366.068C155 366.067 155 366.066 155 366.065C155 366.064 155 366.063 155 366.062C155 366.061 155 366.06 155 366.059C155 366.058 155 366.057 155 366.056C155 366.055 155 366.054 155 366.053C155 366.052 155 366.051 155 366.05C155 366.049 155 366.048 155 366.047C155 366.045 155 366.044 155 366.043C155 366.042 155 366.041 155 366.04C155 366.039 155 366.038 155 366.037C155 366.036 155 366.035 155 366.034C155 366.033 155 366.032 155 366.031C155 366.03 155 366.029 155 366.028C155 366.027 155 366.026 155 366.025C155 366.024 155 366.022 155 366.021C155 366.02 155 366.019 155 366.018C155 366.017 155 366.016 155 366.015C155 366.014 155 366.013 155 366.012C155 366.011 155 366.01 155 366.009C155 366.008 155 366.007 155 366.006C155 366.005 155 366.004 155 366.003C155 366.002 155 366.001 155 365.999C155 365.998 155 365.997 155 365.996C155 365.995 155 365.994 155 365.993C155 365.992 155 365.991 155 365.99C155 365.989 155 365.988 155 365.987C155 365.986 155 365.985 155 365.984C155 365.983 155 365.982 155 365.981C155 365.98 155 365.979 155 365.978C155 365.976 155 365.975 155 365.974C155 365.973 155 365.972 155 365.971C155 365.97 155 365.969 155 365.968C155 365.967 155 365.966 155 365.965C155 365.964 155 365.963 155 365.962C155 365.961 155 365.96 155 365.959C155 365.958 155 365.957 155 365.956C155 365.955 155 365.953 155 365.952C155 365.951 155 365.95 155 365.949C155 365.948 155 365.947 155 365.946C155 365.945 155 365.944 155 365.943C155 365.942 155 365.941 155 365.94C155 365.939 155 365.938 155 365.937C155 365.936 155 365.935 155 365.934C155 365.933 155 365.932 155 365.93C155 365.929 155 365.928 155 365.927C155 365.926 155 365.925 155 365.924C155 365.923 155 365.922 155 365.921C155 365.92 155 365.919 155 365.918C155 365.917 155 365.916 155 365.915C155 365.914 155 365.913 155 365.912C155 365.911 155 365.91 155 365.909C155 365.908 155 365.906 155 365.905C155 365.904 155 365.903 155 365.902C155 365.901 155 365.9 155 365.899C155 365.898 155 365.897 155 365.896C155 365.895 155 365.894 155 365.893C155 365.892 155 365.891 155 365.89C155 365.889 155 365.888 155 365.887C155 365.886 155 365.885 155 365.883C155 365.882 155 365.881 155 365.88C155 365.879 155 365.878 155 365.877C155 365.876 155 365.875 155 365.874C155 365.873 155 365.872 155 365.871C155 365.87 155 365.869 155 365.868C155 365.867 155 365.866 155 365.865C155 365.864 155 365.863 155 365.862C155 365.86 155 365.859 155 365.858C155 365.857 155 365.856 155 365.855C155 365.854 155 365.853 155 365.852C155 365.851 155 365.85 155 365.849C155 365.848 155 365.847 155 365.846C155 365.845 155 365.844 155 365.843C155 365.842 155 365.841 155 365.84C155 365.839 155 365.837 155 365.836C155 365.835 155 365.834 155 365.833C155 365.832 155 365.831 155 365.83C155 365.829 155 365.828 155 365.827C155 365.826 155 365.825 155 365.824C155 365.823 155 365.822 155 365.821C155 365.82 155 365.819 155 365.818C155 365.817 155 365.816 155 365.814C155 365.813 155 365.812 155 365.811C155 365.81 155 365.809 155 365.808C155 365.807 155 365.806 155 365.805C155 365.804 155 365.803 155 365.802C155 365.801 155 365.8 155 365.799C155 365.798 155 365.797 155 365.796C155 365.795 155 365.794 155 365.793C155 365.791 155 365.79 155 365.789C155 365.788 155 365.787 155 365.786C155 365.785 155 365.784 155 365.783C155 365.782 155 365.781 155 365.78C155 365.779 155 365.778 155 365.777C155 365.776 155 365.775 155 365.774C155 365.773 155 365.772 155 365.771C155 365.77 155 365.768 155 365.767C155 365.766 155 365.765 155 365.764C155 365.763 155 365.762 155 365.761C155 365.76 155 365.759 155 365.758C155 365.757 155 365.756 155 365.755C155 365.754 155 365.753 155 365.752C155 365.751 155 365.75 155 365.749C155 365.748 155 365.747 155 365.745C155 365.744 155 365.743 155 365.742C155 365.741 155 365.74 155 365.739C155 365.738 155 365.737 155 365.736C155 365.735 155 365.734 155 365.733C155 365.732 155 365.731 155 365.73C155 365.729 155 365.728 155 365.727C155 365.726 155 365.725 155 365.724C155 365.722 155 365.721 155 365.72C155 365.719 155 365.718 155 365.717C155 365.716 155 365.715 155 365.714C155 365.713 155 365.712 155 365.711C155 365.71 155 365.709 155 365.708C155 365.707 155 365.706 155 365.705C155 365.704 155 365.703 155 365.702C155 365.701 155 365.699 155 365.698C155 365.697 155 365.696 155 365.695C155 365.694 155 365.693 155 365.692C155 365.691 155 365.69 155 365.689C155 365.688 155 365.687 155 365.686C155 365.685 155 365.684 155 365.683C155 365.682 155 365.681 155 365.68C155 365.679 155 365.678 155 365.676C155 365.675 155 365.674 155 365.673C155 365.672 155 365.671 155 365.67C155 365.669 155 365.668 155 365.667C155 365.666 155 365.665 155 365.664C155 365.663 155 365.662 155 365.661C155 365.66 155 365.659 155 365.658C155 365.657 155 365.656 155 365.655C155 365.653 155 365.652 155 365.651C155 365.65 155 365.649 155 365.648C155 365.647 155 365.646 155 365.645C155 365.644 155 365.643 155 365.642C155 365.641 155 365.64 155 365.639C155 365.638 155 365.637 155 365.636C155 365.635 155 365.634 155 365.633C155 365.632 155 365.63 155 365.629C155 365.628 155 365.627 155 365.626C155 365.625 155 365.624 155 365.623C155 365.622 155 365.621 155 365.62C155 365.619 155 365.618 155 365.617C155 365.616 155 365.615 155 365.614C155 365.613 155 365.612 155 365.611C155 365.61 155 365.609 155 365.607C155 365.606 155 365.605 155 365.604C155 365.603 155 365.602 155 365.601C155 365.6 155 365.599 155 365.598C155 365.597 155 365.596 155 365.595C155 365.594 155 365.593 155 365.592C155 365.591 155 365.59 155 365.589C155 365.588 155 365.587 155 365.586C155 365.584 155 365.583 155 365.582C155 365.581 155 365.58 155 365.579C155 365.578 155 365.577 155 365.576C155 365.575 155 365.574 155 365.573C155 365.572 155 365.571 155 365.57C155 365.569 155 365.568 155 365.567C155 365.566 155 365.565 155 365.564C155 365.563 155 365.561 155 365.56C155 365.559 155 365.558 155 365.557C155 365.556 155 365.555 155 365.554C155 365.553 155 365.552 155 365.551C155 365.55 155 365.549 155 365.548C155 365.547 155 365.546 155 365.545C155 365.544 155 365.543 155 365.542C155 365.541 155 365.54 155 365.538C155 365.537 155 365.536 155 365.535C155 365.534 155 365.533 155 365.532C155 365.531 155 365.53 155 365.529C155 365.528 155 365.527 155 365.526C155 365.525 155 365.524 155 365.523C155 365.522 155 365.521 155 365.52C155 365.519 155 365.518 155 365.517C155 365.515 155 365.514 155 365.513C155 365.512 155 365.511 155 365.51C155 365.509 155 365.508 155 365.507C155 365.506 155 365.505 155 365.504C155 365.503 155 365.502 155 365.501C155 365.5 155 365.499 155 365.498C155 365.497 155 365.496 155 365.495C155 365.494 155 365.492 155 365.491C155 365.49 155 365.489 155 365.488C155 365.487 155 365.486 155 365.485C155 365.484 155 365.483 155 365.482C155 365.481 155 365.48 155 365.479C155 365.478 155 365.477 155 365.476C155 365.475 155 365.474 155 365.473C155 365.472 155 365.471 155 365.469C155 365.468 155 365.467 155 365.466C155 365.465 155 365.464 155 365.463C155 365.462 155 365.461 155 365.46C155 365.459 155 365.458 155 365.457C155 365.456 155 365.455 155 365.454C155 365.453 155 365.452 155 365.451C155 365.45 155 365.449 155 365.448C155 365.446 155 365.445 155 365.444C155 365.443 155 365.442 155 365.441C155 365.44 155 365.439 155 365.438C155 365.437 155 365.436 155 365.435C155 365.434 155 365.433 155 365.432C155 365.431 155 365.43 155 365.429C155 365.428 155 365.427 155 365.426C155 365.425 155 365.423 155 365.422C155 365.421 155 365.42 155 365.419C155 365.418 155 365.417 155 365.416C155 365.415 155 365.414 155 365.413C155 365.412 155 365.411 155 365.41C155 365.409 155 365.408 155 365.407C155 365.406 155 365.405 155 365.404C155 365.403 155 365.402 155 365.401C155 365.399 155 365.398 155 365.397C155 365.396 155 365.395 155 365.394C155 365.393 155 365.392 155 365.391C155 365.39 155 365.389 155 365.388C155 365.387 155 365.386 155 365.385C155 365.384 155 365.383 155 365.382C155 365.381 155 365.38 155 365.379C155 365.378 155 365.376 155 365.375C155 365.374 155 365.373 155 365.372C155 365.371 155 365.37 155 365.369C155 365.368 155 365.367 155 365.366C155 365.365 155 365.364 155 365.363C155 365.362 155 365.361 155 365.36C155 365.359 155 365.358 155 365.357C155 365.356 155 365.355 155 365.353C155 365.352 155 365.351 155 365.35C155 365.349 155 365.348 155 365.347C155 365.346 155 365.345 155 365.344C155 365.343 155 365.342 155 365.341C155 365.34 155 365.339 155 365.338C155 365.337 155 365.336 155 365.335C155 365.334 155 365.333 155 365.332C155 365.33 155 365.329 155 365.328C155 365.327 155 365.326 155 365.325C155 365.324 155 365.323 155 365.322C155 365.321 155 365.32 155 365.319C155 365.318 155 365.317 155 365.316C155 365.315 155 365.314 155 365.313C155 365.312 155 365.311 155 365.31C155 365.309 155 365.307 155 365.306C155 365.305 155 365.304 155 365.303C155 365.302 155 365.301 155 365.3C155 365.299 155 365.298 155 365.297C155 365.296 155 365.295 155 365.294C155 365.293 155 365.292 155 365.291C155 365.29 155 365.289 155 365.288C155 365.287 155 365.286 155 365.284C155 365.283 155 365.282 155 365.281C155 365.28 155 365.279 155 365.278C155 365.277 155 365.276 155 365.275C155 365.274 155 365.273 155 365.272C155 365.271 155 365.27 155 365.269C155 365.268 155 365.267 155 365.266C155 365.265 155 365.264 155 365.263C155 365.261 155 365.26 155 365.259C155 365.258 155 365.257 155 365.256C155 365.255 155 365.254 155 365.253C155 365.252 155 365.251 155 365.25C155 365.249 155 365.248 155 365.247C155 365.246 155 365.245 155 365.244C155 365.243 155 365.242 155 365.241C155 365.24 155 365.238 155 365.237C155 365.236 155 365.235 155 365.234C155 365.233 155 365.232 155 365.231C155 365.23 155 365.229 155 365.228C155 365.227 155 365.226 155 365.225C155 365.224 155 365.223 155 365.222C155 365.221 155 365.22 155 365.219C155 365.218 155 365.217 155 365.215C155 365.214 155 365.213 155 365.212C155 365.211 155 365.21 155 365.209C155 365.208 155 365.207 155 365.206C155 365.205 155 365.204 155 365.203C155 365.202 155 365.201 155 365.2C155 365.199 155 365.198 155 365.197C155 365.196 155 365.195 155 365.194C155 365.192 155 365.191 155 365.19C155 365.189 155 365.188 155 365.187C155 365.186 155 365.185 155 365.184C155 365.183 155 365.182 155 365.181C155 365.18 155 365.179 155 365.178C155 365.177 155 365.176 155 365.175C155 365.174 155 365.173 155 365.172C155 365.171 155 365.169 155 365.168C155 365.167 155 365.166 155 365.165C155 365.164 155 365.163 155 365.162C155 365.161 155 365.16 155 365.159C155 365.158 155 365.157 155 365.156C155 365.155 155 365.154 155 365.153C155 365.152 155 365.151 155 365.15C155 365.149 155 365.148 155 365.146C155 365.145 155 365.144 155 365.143C155 365.142 155 365.141 155 365.14C155 365.139 155 365.138 155 365.137C155 365.136 155 365.135 155 365.134C155 365.133 155 365.132 155 365.131C155 365.13 155 365.129 155 365.128C155 365.127 155 365.126 155 365.125C155 365.123 155 365.122 155 365.121C155 365.12 155 365.119 155 365.118C155 365.117 155 365.116 155 365.115C155 365.114 155 365.113 155 365.112C155 365.111 155 365.11 155 365.109C155 365.108 155 365.107 155 365.106C155 365.105 155 365.104 155 365.103C155 365.102 155 365.1 155 365.099C155 365.098 155 365.097 155 365.096C155 365.095 155 365.094 155 365.093C155 365.092 155 365.091 155 365.09C155 365.089 155 365.088 155 365.087C155 365.086 155 365.085 155 365.084C155 365.083 155 365.082 155 365.081C155 365.08 155 365.079 155 365.077C155 365.076 155 365.075 155 365.074C155 365.073 155 365.072 155 365.071C155 365.07 155 365.069 155 365.068C155 365.067 155 365.066 155 365.065C155 365.064 155 365.063 155 365.062C155 365.061 155 365.06 155 365.059C155 365.058 155 365.057 155 365.056C155 365.054 155 365.053 155 365.052C155 365.051 155 365.05 155 365.049C155 365.048 155 365.047 155 365.046C155 365.045 155 365.044 155 365.043C155 365.042 155 365.041 155 365.04C155 365.039 155 365.038 155 365.037C155 365.036 155 365.035 155 365.034C155 365.033 155 365.031 155 365.03C155 365.029 155 365.028 155 365.027C155 365.026 155 365.025 155 365.024C155 365.023 155 365.022 155 365.021C155 365.02 155 365.019 155 365.018C155 365.017 155 365.016 155 365.015C155 365.014 155 365.013 155 365.012C155 365.011 155 365.01 155 365.008C155 365.007 155 365.006 155 365.005C155 365.004 155 365.003 155 365.002C155 365.001 155 365 155 364.999C155 364.998 155 364.997 155 364.996C155 364.995 155 364.994 155 364.993C155 364.992 155 364.991 155 364.99C155 364.989 155 364.988 155 364.987C155 364.985 155 364.984 155 364.983C155 364.982 155 364.981 155 364.98C155 364.979 155 364.978 155 364.977C155 364.976 155 364.975 155 364.974C155 364.973 155 364.972 155 364.971C155 364.97 155 364.969 155 364.968C155 364.967 155 364.966 155 364.965C155 364.964 155 364.962 155 364.961C155 364.96 155 364.959 155 364.958H153C153 364.959 153 364.96 153 364.961C153 364.962 153 364.964 153 364.965C153 364.966 153 364.967 153 364.968C153 364.969 153 364.97 153 364.971C153 364.972 153 364.973 153 364.974C153 364.975 153 364.976 153 364.977C153 364.978 153 364.979 153 364.98C153 364.981 153 364.982 153 364.983C153 364.984 153 364.985 153 364.987C153 364.988 153 364.989 153 364.99C153 364.991 153 364.992 153 364.993C153 364.994 153 364.995 153 364.996C153 364.997 153 364.998 153 364.999C153 365 153 365.001 153 365.002C153 365.003 153 365.004 153 365.005C153 365.006 153 365.007 153 365.008C153 365.01 153 365.011 153 365.012C153 365.013 153 365.014 153 365.015C153 365.016 153 365.017 153 365.018C153 365.019 153 365.02 153 365.021C153 365.022 153 365.023 153 365.024C153 365.025 153 365.026 153 365.027C153 365.028 153 365.029 153 365.03C153 365.031 153 365.033 153 365.034C153 365.035 153 365.036 153 365.037C153 365.038 153 365.039 153 365.04C153 365.041 153 365.042 153 365.043C153 365.044 153 365.045 153 365.046C153 365.047 153 365.048 153 365.049C153 365.05 153 365.051 153 365.052C153 365.053 153 365.054 153 365.056C153 365.057 153 365.058 153 365.059C153 365.06 153 365.061 153 365.062C153 365.063 153 365.064 153 365.065C153 365.066 153 365.067 153 365.068C153 365.069 153 365.07 153 365.071C153 365.072 153 365.073 153 365.074C153 365.075 153 365.076 153 365.077C153 365.079 153 365.08 153 365.081C153 365.082 153 365.083 153 365.084C153 365.085 153 365.086 153 365.087C153 365.088 153 365.089 153 365.09C153 365.091 153 365.092 153 365.093C153 365.094 153 365.095 153 365.096C153 365.097 153 365.098 153 365.099C153 365.1 153 365.102 153 365.103C153 365.104 153 365.105 153 365.106C153 365.107 153 365.108 153 365.109C153 365.11 153 365.111 153 365.112C153 365.113 153 365.114 153 365.115C153 365.116 153 365.117 153 365.118C153 365.119 153 365.12 153 365.121C153 365.122 153 365.123 153 365.125C153 365.126 153 365.127 153 365.128C153 365.129 153 365.13 153 365.131C153 365.132 153 365.133 153 365.134C153 365.135 153 365.136 153 365.137C153 365.138 153 365.139 153 365.14C153 365.141 153 365.142 153 365.143C153 365.144 153 365.145 153 365.146C153 365.148 153 365.149 153 365.15C153 365.151 153 365.152 153 365.153C153 365.154 153 365.155 153 365.156C153 365.157 153 365.158 153 365.159C153 365.16 153 365.161 153 365.162C153 365.163 153 365.164 153 365.165C153 365.166 153 365.167 153 365.168C153 365.169 153 365.171 153 365.172C153 365.173 153 365.174 153 365.175C153 365.176 153 365.177 153 365.178C153 365.179 153 365.18 153 365.181C153 365.182 153 365.183 153 365.184C153 365.185 153 365.186 153 365.187C153 365.188 153 365.189 153 365.19C153 365.191 153 365.192 153 365.194C153 365.195 153 365.196 153 365.197C153 365.198 153 365.199 153 365.2C153 365.201 153 365.202 153 365.203C153 365.204 153 365.205 153 365.206C153 365.207 153 365.208 153 365.209C153 365.21 153 365.211 153 365.212C153 365.213 153 365.214 153 365.215C153 365.217 153 365.218 153 365.219C153 365.22 153 365.221 153 365.222C153 365.223 153 365.224 153 365.225C153 365.226 153 365.227 153 365.228C153 365.229 153 365.23 153 365.231C153 365.232 153 365.233 153 365.234C153 365.235 153 365.236 153 365.237C153 365.238 153 365.24 153 365.241C153 365.242 153 365.243 153 365.244C153 365.245 153 365.246 153 365.247C153 365.248 153 365.249 153 365.25C153 365.251 153 365.252 153 365.253C153 365.254 153 365.255 153 365.256C153 365.257 153 365.258 153 365.259C153 365.26 153 365.261 153 365.263C153 365.264 153 365.265 153 365.266C153 365.267 153 365.268 153 365.269C153 365.27 153 365.271 153 365.272C153 365.273 153 365.274 153 365.275C153 365.276 153 365.277 153 365.278C153 365.279 153 365.28 153 365.281C153 365.282 153 365.283 153 365.284C153 365.286 153 365.287 153 365.288C153 365.289 153 365.29 153 365.291C153 365.292 153 365.293 153 365.294C153 365.295 153 365.296 153 365.297C153 365.298 153 365.299 153 365.3C153 365.301 153 365.302 153 365.303C153 365.304 153 365.305 153 365.306C153 365.307 153 365.309 153 365.31C153 365.311 153 365.312 153 365.313C153 365.314 153 365.315 153 365.316C153 365.317 153 365.318 153 365.319C153 365.32 153 365.321 153 365.322C153 365.323 153 365.324 153 365.325C153 365.326 153 365.327 153 365.328C153 365.329 153 365.33 153 365.332C153 365.333 153 365.334 153 365.335C153 365.336 153 365.337 153 365.338C153 365.339 153 365.34 153 365.341C153 365.342 153 365.343 153 365.344C153 365.345 153 365.346 153 365.347C153 365.348 153 365.349 153 365.35C153 365.351 153 365.352 153 365.353C153 365.355 153 365.356 153 365.357C153 365.358 153 365.359 153 365.36C153 365.361 153 365.362 153 365.363C153 365.364 153 365.365 153 365.366C153 365.367 153 365.368 153 365.369C153 365.37 153 365.371 153 365.372C153 365.373 153 365.374 153 365.375C153 365.376 153 365.378 153 365.379C153 365.38 153 365.381 153 365.382C153 365.383 153 365.384 153 365.385C153 365.386 153 365.387 153 365.388C153 365.389 153 365.39 153 365.391C153 365.392 153 365.393 153 365.394C153 365.395 153 365.396 153 365.397C153 365.398 153 365.399 153 365.401C153 365.402 153 365.403 153 365.404C153 365.405 153 365.406 153 365.407C153 365.408 153 365.409 153 365.41C153 365.411 153 365.412 153 365.413C153 365.414 153 365.415 153 365.416C153 365.417 153 365.418 153 365.419C153 365.42 153 365.421 153 365.422C153 365.423 153 365.425 153 365.426C153 365.427 153 365.428 153 365.429C153 365.43 153 365.431 153 365.432C153 365.433 153 365.434 153 365.435C153 365.436 153 365.437 153 365.438C153 365.439 153 365.44 153 365.441C153 365.442 153 365.443 153 365.444C153 365.445 153 365.446 153 365.448C153 365.449 153 365.45 153 365.451C153 365.452 153 365.453 153 365.454C153 365.455 153 365.456 153 365.457C153 365.458 153 365.459 153 365.46C153 365.461 153 365.462 153 365.463C153 365.464 153 365.465 153 365.466C153 365.467 153 365.468 153 365.469C153 365.471 153 365.472 153 365.473C153 365.474 153 365.475 153 365.476C153 365.477 153 365.478 153 365.479C153 365.48 153 365.481 153 365.482C153 365.483 153 365.484 153 365.485C153 365.486 153 365.487 153 365.488C153 365.489 153 365.49 153 365.491C153 365.492 153 365.494 153 365.495C153 365.496 153 365.497 153 365.498C153 365.499 153 365.5 153 365.501C153 365.502 153 365.503 153 365.504C153 365.505 153 365.506 153 365.507C153 365.508 153 365.509 153 365.51C153 365.511 153 365.512 153 365.513C153 365.514 153 365.515 153 365.517C153 365.518 153 365.519 153 365.52C153 365.521 153 365.522 153 365.523C153 365.524 153 365.525 153 365.526C153 365.527 153 365.528 153 365.529C153 365.53 153 365.531 153 365.532C153 365.533 153 365.534 153 365.535C153 365.536 153 365.537 153 365.538C153 365.54 153 365.541 153 365.542C153 365.543 153 365.544 153 365.545C153 365.546 153 365.547 153 365.548C153 365.549 153 365.55 153 365.551C153 365.552 153 365.553 153 365.554C153 365.555 153 365.556 153 365.557C153 365.558 153 365.559 153 365.56C153 365.561 153 365.563 153 365.564C153 365.565 153 365.566 153 365.567C153 365.568 153 365.569 153 365.57C153 365.571 153 365.572 153 365.573C153 365.574 153 365.575 153 365.576C153 365.577 153 365.578 153 365.579C153 365.58 153 365.581 153 365.582C153 365.583 153 365.584 153 365.586C153 365.587 153 365.588 153 365.589C153 365.59 153 365.591 153 365.592C153 365.593 153 365.594 153 365.595C153 365.596 153 365.597 153 365.598C153 365.599 153 365.6 153 365.601C153 365.602 153 365.603 153 365.604C153 365.605 153 365.606 153 365.607C153 365.609 153 365.61 153 365.611C153 365.612 153 365.613 153 365.614C153 365.615 153 365.616 153 365.617C153 365.618 153 365.619 153 365.62C153 365.621 153 365.622 153 365.623C153 365.624 153 365.625 153 365.626C153 365.627 153 365.628 153 365.629C153 365.63 153 365.632 153 365.633C153 365.634 153 365.635 153 365.636C153 365.637 153 365.638 153 365.639C153 365.64 153 365.641 153 365.642C153 365.643 153 365.644 153 365.645C153 365.646 153 365.647 153 365.648C153 365.649 153 365.65 153 365.651C153 365.652 153 365.653 153 365.655C153 365.656 153 365.657 153 365.658C153 365.659 153 365.66 153 365.661C153 365.662 153 365.663 153 365.664C153 365.665 153 365.666 153 365.667C153 365.668 153 365.669 153 365.67C153 365.671 153 365.672 153 365.673C153 365.674 153 365.675 153 365.676C153 365.678 153 365.679 153 365.68C153 365.681 153 365.682 153 365.683C153 365.684 153 365.685 153 365.686C153 365.687 153 365.688 153 365.689C153 365.69 153 365.691 153 365.692C153 365.693 153 365.694 153 365.695C153 365.696 153 365.697 153 365.698C153 365.699 153 365.701 153 365.702C153 365.703 153 365.704 153 365.705C153 365.706 153 365.707 153 365.708C153 365.709 153 365.71 153 365.711C153 365.712 153 365.713 153 365.714C153 365.715 153 365.716 153 365.717C153 365.718 153 365.719 153 365.72C153 365.721 153 365.722 153 365.724C153 365.725 153 365.726 153 365.727C153 365.728 153 365.729 153 365.73C153 365.731 153 365.732 153 365.733C153 365.734 153 365.735 153 365.736C153 365.737 153 365.738 153 365.739C153 365.74 153 365.741 153 365.742C153 365.743 153 365.744 153 365.745C153 365.747 153 365.748 153 365.749C153 365.75 153 365.751 153 365.752C153 365.753 153 365.754 153 365.755C153 365.756 153 365.757 153 365.758C153 365.759 153 365.76 153 365.761C153 365.762 153 365.763 153 365.764C153 365.765 153 365.766 153 365.767C153 365.768 153 365.77 153 365.771C153 365.772 153 365.773 153 365.774C153 365.775 153 365.776 153 365.777C153 365.778 153 365.779 153 365.78C153 365.781 153 365.782 153 365.783C153 365.784 153 365.785 153 365.786C153 365.787 153 365.788 153 365.789C153 365.79 153 365.791 153 365.793C153 365.794 153 365.795 153 365.796C153 365.797 153 365.798 153 365.799C153 365.8 153 365.801 153 365.802C153 365.803 153 365.804 153 365.805C153 365.806 153 365.807 153 365.808C153 365.809 153 365.81 153 365.811C153 365.812 153 365.813 153 365.814C153 365.816 153 365.817 153 365.818C153 365.819 153 365.82 153 365.821C153 365.822 153 365.823 153 365.824C153 365.825 153 365.826 153 365.827C153 365.828 153 365.829 153 365.83C153 365.831 153 365.832 153 365.833C153 365.834 153 365.835 153 365.836C153 365.837 153 365.839 153 365.84C153 365.841 153 365.842 153 365.843C153 365.844 153 365.845 153 365.846C153 365.847 153 365.848 153 365.849C153 365.85 153 365.851 153 365.852C153 365.853 153 365.854 153 365.855C153 365.856 153 365.857 153 365.858C153 365.859 153 365.86 153 365.862C153 365.863 153 365.864 153 365.865C153 365.866 153 365.867 153 365.868C153 365.869 153 365.87 153 365.871C153 365.872 153 365.873 153 365.874C153 365.875 153 365.876 153 365.877C153 365.878 153 365.879 153 365.88C153 365.881 153 365.882 153 365.883C153 365.885 153 365.886 153 365.887C153 365.888 153 365.889 153 365.89C153 365.891 153 365.892 153 365.893C153 365.894 153 365.895 153 365.896C153 365.897 153 365.898 153 365.899C153 365.9 153 365.901 153 365.902C153 365.903 153 365.904 153 365.905C153 365.906 153 365.908 153 365.909C153 365.91 153 365.911 153 365.912C153 365.913 153 365.914 153 365.915C153 365.916 153 365.917 153 365.918C153 365.919 153 365.92 153 365.921C153 365.922 153 365.923 153 365.924C153 365.925 153 365.926 153 365.927C153 365.928 153 365.929 153 365.93C153 365.932 153 365.933 153 365.934C153 365.935 153 365.936 153 365.937C153 365.938 153 365.939 153 365.94C153 365.941 153 365.942 153 365.943C153 365.944 153 365.945 153 365.946C153 365.947 153 365.948 153 365.949C153 365.95 153 365.951 153 365.952C153 365.953 153 365.955 153 365.956C153 365.957 153 365.958 153 365.959C153 365.96 153 365.961 153 365.962C153 365.963 153 365.964 153 365.965C153 365.966 153 365.967 153 365.968C153 365.969 153 365.97 153 365.971C153 365.972 153 365.973 153 365.974C153 365.975 153 365.976 153 365.978C153 365.979 153 365.98 153 365.981C153 365.982 153 365.983 153 365.984C153 365.985 153 365.986 153 365.987C153 365.988 153 365.989 153 365.99C153 365.991 153 365.992 153 365.993C153 365.994 153 365.995 153 365.996C153 365.997 153 365.998 153 365.999C153 366.001 153 366.002 153 366.003C153 366.004 153 366.005 153 366.006C153 366.007 153 366.008 153 366.009C153 366.01 153 366.011 153 366.012C153 366.013 153 366.014 153 366.015C153 366.016 153 366.017 153 366.018C153 366.019 153 366.02 153 366.021C153 366.022 153 366.024 153 366.025C153 366.026 153 366.027 153 366.028C153 366.029 153 366.03 153 366.031C153 366.032 153 366.033 153 366.034C153 366.035 153 366.036 153 366.037C153 366.038 153 366.039 153 366.04C153 366.041 153 366.042 153 366.043C153 366.044 153 366.045 153 366.047C153 366.048 153 366.049 153 366.05C153 366.051 153 366.052 153 366.053C153 366.054 153 366.055 153 366.056C153 366.057 153 366.058 153 366.059C153 366.06 153 366.061 153 366.062C153 366.063 153 366.064 153 366.065C153 366.066 153 366.067 153 366.068C153 366.07 153 366.071 153 366.072C153 366.073 153 366.074 153 366.075C153 366.076 153 366.077 153 366.078C153 366.079 153 366.08 153 366.081C153 366.082 153 366.083 153 366.084C153 366.085 153 366.086 153 366.087C153 366.088 153 366.089 153 366.09C153 366.091 153 366.093 153 366.094C153 366.095 153 366.096 153 366.097C153 366.098 153 366.099 153 366.1C153 366.101 153 366.102 153 366.103C153 366.104 153 366.105 153 366.106C153 366.107 153 366.108 153 366.109C153 366.11 153 366.111 153 366.112C153 366.113 153 366.114 153 366.116C153 366.117 153 366.118 153 366.119C153 366.12 153 366.121 153 366.122C153 366.123 153 366.124 153 366.125C153 366.126 153 366.127 153 366.128C153 366.129 153 366.13 153 366.131C153 366.132 153 366.133 153 366.134C153 366.135 153 366.136 153 366.137C153 366.139 153 366.14 153 366.141C153 366.142 153 366.143 153 366.144C153 366.145 153 366.146 153 366.147C153 366.148 153 366.149 153 366.15C153 366.151 153 366.152 153 366.153C153 366.154 153 366.155 153 366.156C153 366.157 153 366.158 153 366.159C153 366.16 153 366.162 153 366.163C153 366.164 153 366.165 153 366.166C153 366.167 153 366.168 153 366.169C153 366.17 153 366.171 153 366.172C153 366.173 153 366.174 153 366.175C153 366.176 153 366.177 153 366.178C153 366.179 153 366.18 153 366.181C153 366.182 153 366.183 153 366.185C153 366.186 153 366.187 153 366.188C153 366.189 153 366.19 153 366.191C153 366.192 153 366.193 153 366.194C153 366.195 153 366.196 153 366.197C153 366.198 153 366.199 153 366.2C153 366.201 153 366.202 153 366.203C153 366.204 153 366.205 153 366.206C153 366.208 153 366.209 153 366.21C153 366.211 153 366.212 153 366.213C153 366.214 153 366.215 153 366.216C153 366.217 153 366.218 153 366.219C153 366.22 153 366.221 153 366.222C153 366.223 153 366.224 153 366.225C153 366.226 153 366.227 153 366.228C153 366.229 153 366.231 153 366.232C153 366.233 153 366.234 153 366.235C153 366.236 153 366.237 153 366.238C153 366.239 153 366.24 153 366.241C153 366.242 153 366.243 153 366.244C153 366.245 153 366.246 153 366.247C153 366.248 153 366.249 153 366.25C153 366.251 153 366.252 153 366.254C153 366.255 153 366.256 153 366.257C153 366.258 153 366.259 153 366.26C153 366.261 153 366.262 153 366.263C153 366.264 153 366.265 153 366.266C153 366.267 153 366.268 153 366.269C153 366.27 153 366.271 153 366.272C153 366.273 153 366.274 153 366.275C153 366.277 153 366.278 153 366.279C153 366.28 153 366.281 153 366.282C153 366.283 153 366.284 153 366.285C153 366.286 153 366.287 153 366.288C153 366.289 153 366.29 153 366.291C153 366.292 153 366.293 153 366.294C153 366.295 153 366.296 153 366.297C153 366.298 153 366.3 153 366.301C153 366.302 153 366.303 153 366.304C153 366.305 153 366.306 153 366.307C153 366.308 153 366.309 153 366.31C153 366.311 153 366.312 153 366.313C153 366.314 153 366.315 153 366.316C153 366.317 153 366.318 153 366.319C153 366.32 153 366.321 153 366.323C153 366.324 153 366.325 153 366.326C153 366.327 153 366.328 153 366.329C153 366.33 153 366.331 153 366.332C153 366.333 153 366.334 153 366.335C153 366.336 153 366.337 153 366.338C153 366.339 153 366.34 153 366.341C153 366.342 153 366.343 153 366.344C153 366.346 153 366.347 153 366.348C153 366.349 153 366.35 153 366.351C153 366.352 153 366.353 153 366.354C153 366.355 153 366.356 153 366.357C153 366.358 153 366.359 153 366.36C153 366.361 153 366.362 153 366.363C153 366.364 153 366.365 153 366.366C153 366.367 153 366.369 153 366.37C153 366.371 153 366.372 153 366.373C153 366.374 153 366.375 153 366.376C153 366.377 153 366.378 153 366.379C153 366.38 153 366.381 153 366.382C153 366.383 153 366.384 153 366.385C153 366.386 153 366.387 153 366.388C153 366.389 153 366.39 153 366.392C153 366.393 153 366.394 153 366.395C153 366.396 153 366.397 153 366.398C153 366.399 153 366.4 153 366.401C153 366.402 153 366.403 153 366.404C153 366.405 153 366.406 153 366.407C153 366.408 153 366.409 153 366.41C153 366.411 153 366.412 153 366.413C153 366.415 153 366.416 153 366.417C153 366.418 153 366.419 153 366.42C153 366.421 153 366.422 153 366.423C153 366.424 153 366.425 153 366.426C153 366.427 153 366.428 153 366.429C153 366.43 153 366.431 153 366.432C153 366.433 153 366.434 153 366.435C153 366.436 153 366.438 153 366.439C153 366.44 153 366.441 153 366.442C153 366.443 153 366.444 153 366.445C153 366.446 153 366.447 153 366.448C153 366.449 153 366.45 153 366.451C153 366.452 153 366.453 153 366.454C153 366.455 153 366.456 153 366.457C153 366.458 153 366.459 153 366.46C153 366.462 153 366.463 153 366.464C153 366.465 153 366.466 153 366.467C153 366.468 153 366.469 153 366.47C153 366.471 153 366.472 153 366.473C153 366.474 153 366.475 153 366.476C153 366.477 153 366.478 153 366.479C153 366.48 153 366.481 153 366.482C153 366.483 153 366.485 153 366.486C153 366.487 153 366.488 153 366.489C153 366.49 153 366.491 153 366.492C153 366.493 153 366.494 153 366.495C153 366.496 153 366.497 153 366.498C153 366.499 153 366.5 153 366.501C153 366.502 153 366.503 153 366.504C153 366.505 153 366.506 153 366.508C153 366.509 153 366.51 153 366.511C153 366.512 153 366.513 153 366.514C153 366.515 153 366.516 153 366.517C153 366.518 153 366.519 153 366.52C153 366.521 153 366.522 153 366.523C153 366.524 153 366.525 153 366.526C153 366.527 153 366.528 153 366.529C153 366.531 153 366.532 153 366.533C153 366.534 153 366.535 153 366.536C153 366.537 153 366.538 153 366.539C153 366.54 153 366.541 153 366.542C153 366.543 153 366.544 153 366.545C153 366.546 153 366.547 153 366.548C153 366.549 153 366.55 153 366.551C153 366.552 153 366.554 153 366.555C153 366.556 153 366.557 153 366.558C153 366.559 153 366.56 153 366.561C153 366.562 153 366.563 153 366.564H155ZM154.529 365.807C154.433 365.867 154.31 365.911 154.171 365.92C154.039 365.928 153.933 365.901 153.867 365.877L154.569 364.004C154.259 363.888 153.852 363.872 153.471 364.11L154.529 365.807ZM153.487 365.623C153.557 365.697 153.583 365.745 153.592 365.763C153.598 365.777 153.592 365.768 153.592 365.744C153.592 365.687 153.621 365.729 153.481 365.89L154.991 367.201C155.324 366.818 155.594 366.325 155.592 365.735C155.589 365.14 155.309 364.644 154.949 364.258L153.487 365.623Z" fill="#120032" mask="url(#path-5-inside-2_779_6035)"/>
<path d="M238.837 290.585C238.828 290.589 238.818 290.593 238.809 290.597C238.101 290.917 237.411 291.229 236.732 291.553L236.731 291.553C229.987 294.788 223.557 298.69 217.691 303.351L217.691 303.351C212.135 307.767 207.116 312.869 202.846 318.546C198.558 324.243 195.048 330.504 192.343 337.091C189.375 344.303 187.246 351.938 186.222 359.677L186.222 359.677C185.603 364.38 185.483 369.056 185.363 373.748C185.357 373.974 185.352 374.199 185.346 374.425L185.346 374.426C185.328 375.184 185.307 375.945 185.286 376.706C185.254 377.852 185.222 379 185.2 380.144L185.2 380.144L185.2 380.145C185.182 381.124 185.164 382.106 185.155 383.088C185.152 383.362 185.171 383.683 185.19 383.991C185.199 384.14 185.208 384.286 185.214 384.423C185.235 384.876 185.228 385.265 185.152 385.564L185.151 385.568C185.123 385.681 185.071 385.739 184.986 385.785C184.881 385.843 184.717 385.883 184.483 385.897C184.255 385.91 184.002 385.895 183.74 385.874C183.686 385.87 183.631 385.865 183.574 385.86C183.376 385.842 183.169 385.824 182.998 385.822H182.993C182.344 385.822 181.695 385.82 181.045 385.818C180.396 385.815 179.746 385.813 179.096 385.813C177.796 385.809 176.497 385.806 175.196 385.804L175.181 385.804C173.886 385.802 172.589 385.8 171.291 385.795H171.29C168.692 385.791 166.091 385.788 163.49 385.786H163.489C160.888 385.784 158.287 385.781 155.689 385.777H155.688H155.685H155.683H155.68H155.677H155.674H155.672H155.669H155.666H155.663H155.66H155.658H155.655H155.652H155.649H155.647H155.644H155.641H155.638H155.636H155.633H155.63H155.627H155.625H155.622H155.619H155.616H155.613H155.611H155.608H155.605H155.602H155.6H155.597H155.594H155.591H155.589H155.586H155.583H155.58H155.578H155.575H155.572H155.569H155.567H155.564H155.561H155.558H155.555H155.553H155.55H155.547H155.544H155.542H155.539H155.536H155.533H155.531H155.528H155.525H155.522H155.52H155.517H155.514H155.511H155.509H155.506H155.503H155.5H155.498H155.495H155.492H155.489H155.487H155.484H155.481H155.478H155.476H155.473H155.47H155.467H155.465H155.462H155.459H155.456H155.453H155.451H155.448H155.445H155.442H155.44H155.437H155.434H155.431H155.429H155.426H155.423H155.42H155.418H155.415H155.412H155.409H155.407H155.404H155.401H155.398H155.396H155.393H155.39H155.387H155.385H155.382H155.379H155.376H155.374H155.371H155.368H155.365H155.363H155.36H155.357H155.354H155.352H155.349H155.346H155.343H155.341H155.338H155.335H155.332H155.33H155.327H155.324H155.321H155.319H155.316H155.313H155.31H155.308H155.305H155.302H155.299H155.297H155.294H155.291H155.288H155.286H155.283H155.28H155.278H155.275H155.272H155.269H155.267H155.264H155.261H155.258H155.256H155.253H155.25H155.247H155.245H155.242H155.239H155.236H155.234H155.231H155.228H155.225H155.223H155.22H155.217H155.214H155.212H155.209H155.206H155.203H155.201H155.198H155.195H155.192H155.19H155.187H155.184H155.181H155.179H155.176H155.173H155.17H155.168H155.165H155.162H155.159H155.157H155.154H155.151H155.149H155.146H155.143H155.14H155.138H155.135H155.132H155.129H155.127H155.124H155.121H155.118H155.116H155.113H155.11H155.107H155.105H155.102H155.099H155.096H155.094H155.091H155.088H155.085H155.083H155.08H155.077H155.074H155.072H155.069H155.066H155.063H155.061H155.058H155.055H155.053H155.05H155.047H155.044H155.042H155.039H155.036H155.033H155.031H155.028H155.025H155.022H155.02H155.017H155.014H155.011H155.009H155.006H155.003H155H154.998H154.995H154.992H154.989H154.987H154.984H154.981H154.978H154.976H154.973H154.97H154.968H154.965H154.962H154.959H154.957H154.954H154.951H154.948H154.946H154.943H154.94H154.937H154.935H154.932H154.929H154.926H154.924H154.921H154.918H154.915H154.913H154.91H154.907H154.904H154.902H154.899H154.896H154.893H154.891H154.888H154.885H154.883H154.88H154.877H154.874H154.872H154.869H154.866H154.863H154.861H154.858H154.855H154.852H154.85H154.847H154.844H154.841H154.839H154.836H154.833H154.83H154.828H154.825H154.822H154.819H154.817H154.814H154.811H154.808H154.806H154.803H154.8H154.797H154.795H154.792H154.789H154.786H154.784H154.781H154.778C154.77 382.668 154.759 379.571 154.748 376.471C154.737 373.171 154.725 369.868 154.716 366.545L154.716 366.538C154.712 366.272 154.709 366.007 154.707 365.739L154.707 365.738C154.705 365.477 154.703 365.214 154.698 364.95C156.267 336.416 166.769 311.63 186.087 290.582L186.087 290.582C192.825 283.232 200.478 276.927 208.903 271.542C208.962 271.505 209.008 271.475 209.048 271.448C209.106 271.409 209.153 271.378 209.209 271.345C209.291 271.296 209.335 271.281 209.358 271.276C209.369 271.274 209.378 271.273 209.403 271.282C209.437 271.296 209.509 271.335 209.622 271.444L209.625 271.446C218.191 279.623 227.952 285.974 238.837 290.585ZM238.837 290.585C239.046 290.673 239.255 290.761 239.464 290.848C239.465 290.848 239.466 290.848 239.466 290.849C239.313 290.918 239.161 290.987 239.009 291.055C238.304 291.374 237.621 291.683 236.947 292.004C230.232 295.224 223.835 299.107 218.002 303.743C212.478 308.133 207.489 313.204 203.246 318.847C198.984 324.508 195.495 330.731 192.806 337.281C189.853 344.456 187.736 352.049 186.718 359.742C186.102 364.419 185.983 369.07 185.863 373.768C185.857 373.992 185.851 374.215 185.846 374.438C185.827 375.2 185.806 375.962 185.785 376.724C185.754 377.867 185.722 379.01 185.7 380.154C185.682 381.133 185.664 382.113 185.655 383.093C185.652 383.35 185.669 383.637 185.688 383.934C185.725 384.538 185.765 385.182 185.637 385.687" fill="#01A195" stroke="#120032"/>
<mask id="path-8-inside-3_779_6035" fill="white">
<path fill-rule="evenodd" clip-rule="evenodd" d="M200.037 200.189C200.6 158.369 235.219 124.268 277.806 125.012C318.858 125.738 352.705 159.239 352.805 201.25C352.805 220.577 345.611 238.226 333.724 251.665L357.852 287.835C361.8 293.763 360.155 301.742 354.16 305.646L349.216 308.872C343.222 312.785 335.162 311.149 331.205 305.221L308.12 270.615C298.302 275.086 287.357 277.553 275.807 277.489C233.447 277.262 199.464 242.454 200.037 200.189ZM231.939 200.588C231.584 225.653 251.828 245.566 276.071 245.638C300.949 245.711 320.866 225.925 320.866 201.269C320.948 177.256 301.585 157.325 277.288 156.863C252.51 156.391 232.284 176.122 231.939 200.588Z"/>
</mask>
<path fill-rule="evenodd" clip-rule="evenodd" d="M200.037 200.189C200.6 158.369 235.219 124.268 277.806 125.012C318.858 125.738 352.705 159.239 352.805 201.25C352.805 220.577 345.611 238.226 333.724 251.665L357.852 287.835C361.8 293.763 360.155 301.742 354.16 305.646L349.216 308.872C343.222 312.785 335.162 311.149 331.205 305.221L308.12 270.615C298.302 275.086 287.357 277.553 275.807 277.489C233.447 277.262 199.464 242.454 200.037 200.189ZM231.939 200.588C231.584 225.653 251.828 245.566 276.071 245.638C300.949 245.711 320.866 225.925 320.866 201.269C320.948 177.256 301.585 157.325 277.288 156.863C252.51 156.391 232.284 176.122 231.939 200.588Z" fill="#01A195"/>
<path d="M277.806 125.012L277.824 124.012L277.824 124.012L277.806 125.012ZM200.037 200.189L201.036 200.203L201.036 200.202L200.037 200.189ZM352.805 201.25H353.805V201.248L352.805 201.25ZM333.724 251.665L332.975 251.002L332.465 251.579L332.892 252.22L333.724 251.665ZM357.852 287.835L358.684 287.281L358.684 287.28L357.852 287.835ZM354.16 305.646L353.614 304.808L353.614 304.808L354.16 305.646ZM349.216 308.872L348.67 308.034L348.67 308.034L349.216 308.872ZM331.205 305.221L330.373 305.776L330.373 305.776L331.205 305.221ZM308.12 270.615L308.952 270.06L308.48 269.352L307.706 269.705L308.12 270.615ZM275.807 277.489L275.813 276.489H275.813L275.807 277.489ZM276.071 245.638L276.068 246.638H276.068L276.071 245.638ZM231.939 200.588L232.938 200.602L232.938 200.602L231.939 200.588ZM320.866 201.269L319.866 201.265V201.269H320.866ZM277.288 156.863L277.307 155.863L277.288 156.863ZM277.824 124.012C234.68 123.258 199.607 157.804 199.037 200.175L201.036 200.202C201.592 158.933 235.758 125.278 277.789 126.012L277.824 124.012ZM353.805 201.248C353.703 158.686 319.414 124.747 277.824 124.012L277.789 126.012C318.303 126.728 351.706 159.793 351.805 201.253L353.805 201.248ZM334.473 252.327C346.515 238.713 353.805 220.83 353.805 201.25H351.805C351.805 220.324 344.706 237.74 332.975 251.002L334.473 252.327ZM332.892 252.22L357.02 288.39L358.684 287.28L334.556 251.11L332.892 252.22ZM357.02 288.389C360.658 293.852 359.144 301.207 353.614 304.808L354.706 306.484C361.165 302.277 362.941 293.673 358.684 287.281L357.02 288.389ZM353.614 304.808L348.67 308.034L349.763 309.709L354.707 306.483L353.614 304.808ZM348.67 308.034C343.131 311.65 335.687 310.135 332.037 304.666L330.373 305.776C334.636 312.163 343.312 313.92 349.763 309.709L348.67 308.034ZM332.037 304.666L308.952 270.06L307.288 271.17L330.373 305.776L332.037 304.666ZM275.802 278.489C287.499 278.553 298.586 276.055 308.535 271.525L307.706 269.705C298.017 274.117 287.216 276.552 275.813 276.489L275.802 278.489ZM199.037 200.175C198.457 242.994 232.884 278.259 275.802 278.489L275.813 276.489C234.01 276.265 200.472 241.914 201.036 200.203L199.037 200.175ZM276.074 244.638C252.38 244.567 232.592 225.103 232.938 200.602L230.939 200.574C230.576 226.203 251.277 246.564 276.068 246.638L276.074 244.638ZM319.866 201.269C319.866 225.366 300.404 244.709 276.074 244.638L276.068 246.638C301.494 246.712 321.866 226.484 321.866 201.269H319.866ZM277.269 157.862C301.02 158.315 319.946 177.799 319.866 201.265L321.866 201.272C321.95 176.712 302.15 156.336 277.307 155.863L277.269 157.862ZM232.938 200.602C233.276 176.69 253.045 157.401 277.269 157.862L277.307 155.863C251.975 155.381 231.292 175.554 230.939 200.574L232.938 200.602Z" fill="#120032" mask="url(#path-8-inside-3_779_6035)"/>
<path d="M238.837 290.585C238.828 290.589 238.818 290.593 238.809 290.597C238.101 290.917 237.411 291.229 236.732 291.553L236.731 291.553C229.987 294.788 223.557 298.69 217.691 303.351L217.691 303.351C212.135 307.767 207.116 312.869 202.846 318.546C198.558 324.243 195.048 330.504 192.343 337.091C189.375 344.303 187.246 351.938 186.222 359.677L186.222 359.677C185.603 364.38 185.483 369.056 185.363 373.748C185.357 373.974 185.352 374.199 185.346 374.425L185.346 374.426C185.328 375.184 185.307 375.945 185.286 376.706C185.254 377.852 185.222 379 185.2 380.144L185.2 380.144L185.2 380.145C185.182 381.124 185.164 382.106 185.155 383.087C185.152 383.362 185.171 383.683 185.19 383.991C185.199 384.14 185.208 384.286 185.214 384.423C185.235 384.876 185.228 385.265 185.152 385.564L185.151 385.568C185.123 385.681 185.071 385.739 184.986 385.785C184.881 385.843 184.717 385.883 184.483 385.897C184.255 385.91 184.002 385.895 183.74 385.874C183.686 385.87 183.631 385.865 183.574 385.86C183.376 385.842 183.169 385.824 182.998 385.822H182.993C182.344 385.822 181.695 385.82 181.045 385.818C180.396 385.815 179.746 385.813 179.096 385.813C177.796 385.809 176.497 385.806 175.196 385.804L175.181 385.804C173.886 385.802 172.589 385.8 171.291 385.795H171.29C168.692 385.79 166.091 385.788 163.49 385.786H163.489C160.888 385.784 158.287 385.781 155.689 385.777H155.688H155.685H155.683H155.68H155.677H155.674H155.672H155.669H155.666H155.663H155.66H155.658H155.655H155.652H155.649H155.647H155.644H155.641H155.638H155.636H155.633H155.63H155.627H155.625H155.622H155.619H155.616H155.613H155.611H155.608H155.605H155.602H155.6H155.597H155.594H155.591H155.589H155.586H155.583H155.58H155.578H155.575H155.572H155.569H155.567H155.564H155.561H155.558H155.555H155.553H155.55H155.547H155.544H155.542H155.539H155.536H155.533H155.531H155.528H155.525H155.522H155.52H155.517H155.514H155.511H155.509H155.506H155.503H155.5H155.498H155.495H155.492H155.489H155.487H155.484H155.481H155.478H155.476H155.473H155.47H155.467H155.465H155.462H155.459H155.456H155.453H155.451H155.448H155.445H155.442H155.44H155.437H155.434H155.431H155.429H155.426H155.423H155.42H155.418H155.415H155.412H155.409H155.407H155.404H155.401H155.398H155.396H155.393H155.39H155.387H155.385H155.382H155.379H155.376H155.374H155.371H155.368H155.365H155.363H155.36H155.357H155.354H155.352H155.349H155.346H155.343H155.341H155.338H155.335H155.332H155.33H155.327H155.324H155.321H155.319H155.316H155.313H155.31H155.308H155.305H155.302H155.299H155.297H155.294H155.291H155.288H155.286H155.283H155.28H155.278H155.275H155.272H155.269H155.267H155.264H155.261H155.258H155.256H155.253H155.25H155.247H155.245H155.242H155.239H155.236H155.234H155.231H155.228H155.225H155.223H155.22H155.217H155.214H155.212H155.209H155.206H155.203H155.201H155.198H155.195H155.192H155.19H155.187H155.184H155.181H155.179H155.176H155.173H155.17H155.168H155.165H155.162H155.159H155.157H155.154H155.151H155.149H155.146H155.143H155.14H155.138H155.135H155.132H155.129H155.127H155.124H155.121H155.118H155.116H155.113H155.11H155.107H155.105H155.102H155.099H155.096H155.094H155.091H155.088H155.085H155.083H155.08H155.077H155.074H155.072H155.069H155.066H155.063H155.061H155.058H155.055H155.053H155.05H155.047H155.044H155.042H155.039H155.036H155.033H155.031H155.028H155.025H155.022H155.02H155.017H155.014H155.011H155.009H155.006H155.003H155H154.998H154.995H154.992H154.989H154.987H154.984H154.981H154.978H154.976H154.973H154.97H154.968H154.965H154.962H154.959H154.957H154.954H154.951H154.948H154.946H154.943H154.94H154.937H154.935H154.932H154.929H154.926H154.924H154.921H154.918H154.915H154.913H154.91H154.907H154.904H154.902H154.899H154.896H154.893H154.891H154.888H154.885H154.883H154.88H154.877H154.874H154.872H154.869H154.866H154.863H154.861H154.858H154.855H154.852H154.85H154.847H154.844H154.841H154.839H154.836H154.833H154.83H154.828H154.825H154.822H154.819H154.817H154.814H154.811H154.808H154.806H154.803H154.8H154.797H154.795H154.792H154.789H154.786H154.784H154.781H154.778C154.77 382.668 154.759 379.571 154.748 376.471C154.737 373.171 154.725 369.868 154.716 366.545L154.716 366.537C154.712 366.272 154.709 366.007 154.707 365.739L154.707 365.738C154.705 365.477 154.703 365.214 154.698 364.95C156.267 336.416 166.769 311.63 186.087 290.582L186.087 290.582C192.825 283.232 200.478 276.927 208.903 271.542C208.962 271.505 209.008 271.475 209.048 271.448C209.106 271.409 209.153 271.378 209.209 271.345C209.291 271.296 209.335 271.281 209.358 271.276C209.369 271.274 209.378 271.273 209.403 271.282C209.437 271.296 209.509 271.335 209.622 271.444L209.625 271.446C218.191 279.623 227.952 285.974 238.837 290.585ZM238.837 290.585C239.046 290.673 239.255 290.761 239.464 290.848C239.465 290.848 239.466 290.848 239.466 290.849C239.313 290.918 239.161 290.987 239.009 291.055C238.304 291.374 237.621 291.683 236.947 292.004C230.232 295.224 223.835 299.107 218.002 303.743C212.478 308.133 207.489 313.204 203.246 318.847C198.984 324.508 195.495 330.731 192.806 337.281C189.853 344.456 187.736 352.049 186.718 359.742C186.102 364.419 185.983 369.07 185.863 373.768C185.857 373.992 185.851 374.215 185.846 374.438C185.827 375.2 185.806 375.962 185.785 376.724C185.754 377.867 185.722 379.01 185.7 380.154C185.682 381.133 185.664 382.113 185.655 383.093C185.652 383.35 185.669 383.637 185.688 383.934C185.725 384.538 185.765 385.182 185.637 385.687" fill="#01A195" stroke="#120032"/>
<path d="M200.537 200.196L200.037 200.189L200.537 200.196C201.096 158.651 235.488 124.773 277.798 125.512C318.58 126.233 352.205 159.516 352.305 201.252C352.304 243.219 318.158 277.223 275.81 276.989L275.807 277.489L275.81 276.989C233.728 276.763 199.968 242.184 200.537 200.196ZM231.439 200.581C231.08 225.928 251.553 246.065 276.069 246.138C301.221 246.211 321.365 226.206 321.366 201.27C321.449 176.984 301.867 156.831 277.298 156.363C252.242 155.886 231.788 175.838 231.439 200.581Z" fill="#01A195" stroke="#120032"/>
</svg>
