   <svg width="563" height="682" viewBox="0 0 563 682" fill="none" xmlns="http://www.w3.org/2000/svg">
<path fill-rule="evenodd" clip-rule="evenodd" d="M338.591 0.0311183C222.38 -1.90698 127.914 86.9383 126.377 195.897C124.815 306.014 217.546 396.703 333.137 397.294C361.572 397.444 388.662 392.228 413.365 382.651C413.591 383.004 413.824 383.355 414.065 383.704L484.754 485.856C495.49 501.361 517.358 505.639 533.623 495.404L547.037 486.967C563.302 476.756 567.765 455.886 557.054 440.381L486.365 338.229C485.929 337.599 485.473 336.986 485.001 336.393C521.105 300.681 543.243 252.138 543.243 198.663C542.971 89.2073 450.612 1.92195 338.591 0.0311183ZM333.856 314.31C267.704 314.121 212.463 262.242 213.43 196.937C214.372 133.193 269.564 81.7858 337.178 83.0148C403.478 84.2202 456.315 136.147 456.092 198.71C456.092 262.951 401.742 314.499 333.856 314.31ZM87.8464 647.877C87.8464 647.514 87.8464 647.145 87.7401 646.812C88.0577 635.023 88.418 623.34 90.0377 611.596C92.8147 591.554 98.5918 571.771 106.65 553.075C113.989 536.011 123.51 519.797 135.139 505.048C146.718 490.347 160.33 477.135 175.405 465.695C191.322 453.618 208.778 443.502 227.101 435.111C228.94 434.275 230.803 433.471 232.728 432.64C233.631 432.251 234.547 431.855 235.481 431.448C235.267 431.327 235.106 431.232 234.976 431.155L234.976 431.155C234.776 431.036 234.649 430.962 234.514 430.904C204.265 418.897 177.19 402.211 153.486 380.608C152.069 379.3 151.244 379.821 150.178 380.493C150.068 380.562 149.957 380.633 149.842 380.703C126.758 394.789 105.782 411.287 87.3104 430.526C34.3826 485.588 5.59717 550.456 1.30092 625.105C1.14007 625.071 0.979214 625.089 0.818359 625.185V629.345V629.368V680.848V680.87L0.828208 680.87C1.31151 681.923 2.16043 681.761 2.94965 681.611H2.94973L2.95043 681.611C3.21927 681.56 3.48116 681.51 3.71929 681.51C31.676 681.557 59.6575 681.557 87.6143 681.557H87.7224L87.7224 681.547C87.772 670.323 87.8216 659.1 87.8464 647.877Z" fill="#01A195" fill-opacity="0.22"/>
</svg>
