<svg width="14" height="14" viewBox="0 0 14 14" fill="none" xmlns="http://www.w3.org/2000/svg">
<path d="M6.33594 3.83333H7.66927C8.02289 3.83333 8.36203 3.97381 8.61208 4.22386C8.86213 4.47391 9.0026 4.81304 9.0026 5.16667V5.83333H7.66927V5.16667H6.33594V9.16667H7.66927V8.5H9.0026V9.16667C9.0026 9.52029 8.86213 9.85943 8.61208 10.1095C8.36203 10.3595 8.02289 10.5 7.66927 10.5H6.33594C5.98232 10.5 5.64318 10.3595 5.39313 10.1095C5.14308 9.85943 5.0026 9.52029 5.0026 9.16667V5.16667C5.0026 4.81304 5.14308 4.47391 5.39313 4.22386C5.64318 3.97381 5.98232 3.83333 6.33594 3.83333ZM7.0026 0.5C7.87808 0.5 8.74499 0.672438 9.55383 1.00747C10.3627 1.3425 11.0976 1.83356 11.7166 2.45262C12.3357 3.07168 12.8268 3.80661 13.1618 4.61544C13.4968 5.42428 13.6693 6.29119 13.6693 7.16667C13.6693 8.93478 12.9669 10.6305 11.7166 11.8807C10.4664 13.131 8.77071 13.8333 7.0026 13.8333C6.12712 13.8333 5.26022 13.6609 4.45138 13.3259C3.64254 12.9908 2.90762 12.4998 2.28856 11.8807C1.03832 10.6305 0.335938 8.93478 0.335938 7.16667C0.335938 5.39856 1.03832 3.70286 2.28856 2.45262C3.5388 1.20238 5.23449 0.5 7.0026 0.5ZM7.0026 1.83333C5.58812 1.83333 4.23156 2.39524 3.23137 3.39543C2.23117 4.39562 1.66927 5.75218 1.66927 7.16667C1.66927 8.58115 2.23117 9.93771 3.23137 10.9379C4.23156 11.9381 5.58812 12.5 7.0026 12.5C8.41709 12.5 9.77365 11.9381 10.7738 10.9379C11.774 9.93771 12.3359 8.58115 12.3359 7.16667C12.3359 5.75218 11.774 4.39562 10.7738 3.39543C9.77365 2.39524 8.41709 1.83333 7.0026 1.83333Z" fill="#EFFBFB"/>
</svg>
