<?xml version="1.0" standalone="no"?>
<!DOCTYPE svg PUBLIC "-//W3C//DTD SVG 20010904//EN"
 "http://www.w3.org/TR/2001/REC-SVG-20010904/DTD/svg10.dtd">
<svg version="1.0" xmlns="http://www.w3.org/2000/svg"
 width="512.000000pt" height="512.000000pt" viewBox="0 0 512.000000 512.000000"
 preserveAspectRatio="xMidYMid meet">

<g transform="translate(0.000000,512.000000) scale(0.100000,-0.100000)"
fill="#000000" stroke="none">
<path d="M2353 4420 c-655 -83 -1203 -474 -1479 -1056 -401 -842 -126 -1839
651 -2359 688 -461 1601 -410 2240 127 507 426 750 1094 636 1748 -135 776
-744 1384 -1521 1521 -131 23 -412 33 -527 19z m492 -154 c674 -123 1190 -585
1377 -1231 96 -334 89 -683 -22 -1018 -244 -735 -946 -1219 -1715 -1184 -772
36 -1417 564 -1603 1312 -38 152 -47 228 -47 415 0 198 9 268 55 445 159 608
638 1079 1255 1233 70 18 121 27 260 46 62 9 363 -3 440 -18z"/>
<path d="M3360 3387 c-27 -8 -158 -132 -553 -526 l-517 -516 -233 232 c-248
247 -281 272 -376 280 -109 10 -224 -62 -268 -165 -20 -46 -22 -144 -4 -197
20 -58 693 -736 766 -771 70 -33 163 -33 231 1 37 19 195 170 661 637 672 673
656 655 656 773 0 152 -113 266 -262 264 -37 -1 -82 -6 -101 -12z m171 -150
c43 -29 63 -84 49 -136 -8 -29 -123 -149 -612 -637 -332 -331 -613 -607 -625
-613 -40 -20 -97 -13 -139 18 -21 16 -177 168 -346 337 -247 249 -308 316
-316 347 -26 93 52 180 145 162 33 -6 75 -43 304 -271 226 -225 269 -264 295
-264 25 0 96 68 539 511 281 281 528 524 549 540 50 37 108 39 157 6z"/>
</g>
</svg>
