<svg width="34" height="35" viewBox="0 0 34 35" fill="none" xmlns="http://www.w3.org/2000/svg">
<path fill-rule="evenodd" clip-rule="evenodd" d="M25.5534 22.0659C26.7914 20.9459 27.8018 19.7897 28.5073 18.9064C29.0454 18.2326 29.3145 17.8957 29.3145 17.3827C29.3145 16.8698 29.0454 16.5329 28.5073 15.8591C26.5385 13.3942 22.1962 8.80469 17.1558 8.80469C15.868 8.80469 14.6257 9.10428 13.457 9.59148L16.8632 13.1042C16.9599 13.0972 17.0574 13.0937 17.1558 13.0937C19.4528 13.0937 21.3148 15.014 21.3148 17.3827C21.3148 17.4842 21.3114 17.5848 21.3047 17.6844L25.5534 22.0659ZM13.7229 14.9607C13.2647 15.6499 12.9967 16.484 12.9967 17.3827C12.9967 19.7515 14.8588 21.6718 17.1558 21.6718C18.0272 21.6718 18.8361 21.3954 19.5045 20.9229L22.7044 24.2229C21.0331 25.2431 19.149 25.9608 17.1558 25.9608C12.1154 25.9608 7.77301 21.3713 5.80426 18.9064C5.26613 18.2326 4.99707 17.8957 4.99707 17.3827C4.99707 16.8698 5.26614 16.5329 5.80427 15.8591C6.7837 14.6328 8.35061 12.8807 10.2987 11.4295L13.7229 14.9607Z" fill="#333333"/>
<path d="M7.45166 3.08594L29.6333 25.9608" stroke="#333333" stroke-width="2.36458"/>
</svg>
