<svg width="36" height="35" viewBox="0 0 36 35" fill="none" xmlns="http://www.w3.org/2000/svg">
<path fill-rule="evenodd" clip-rule="evenodd" d="M29.8168 16.0767L29.8168 16.0767C27.8981 13.6903 23.286 8.76514 17.9013 8.76514C12.5166 8.76514 7.90443 13.6903 5.98575 16.0767C5.53008 16.6435 5.30225 16.9269 5.30225 17.3432C5.30225 17.7595 5.53008 18.0429 5.98575 18.6097C7.90443 20.9961 12.5166 25.9213 17.9013 25.9213C23.286 25.9213 27.8981 20.9961 29.8168 18.6097L29.8168 18.6096C30.2725 18.0429 30.5003 17.7595 30.5003 17.3432C30.5003 16.9269 30.2725 16.6435 29.8168 16.0767ZM17.9006 21.6325C20.2693 21.6325 22.1896 19.7122 22.1896 17.3434C22.1896 14.9747 20.2693 13.0544 17.9006 13.0544C15.5318 13.0544 13.6116 14.9747 13.6116 17.3434C13.6116 19.7122 15.5318 21.6325 17.9006 21.6325Z" fill="#333333"/>
</svg>
